<?xml version="1.0" encoding="UTF-8" standalone="no"?>
<!-- Created with Inkscape (http://www.inkscape.org/) -->

<svg
   width="100mm"
   height="100mm"
   viewBox="0 0 100 100"
   version="1.1"
   id="svg5"
   inkscape:version="1.1.2 (0a00cf5339, 2022-02-04)"
   sodipodi:docname="0.svg"
   xmlns:inkscape="http://www.inkscape.org/namespaces/inkscape"
   xmlns:sodipodi="http://sodipodi.sourceforge.net/DTD/sodipodi-0.dtd"
   xmlns="http://www.w3.org/2000/svg"
   xmlns:svg="http://www.w3.org/2000/svg">
  <sodipodi:namedview
     id="namedview7"
     pagecolor="#ffffff"
     bordercolor="#999999"
     borderopacity="1"
     inkscape:pageshadow="0"
     inkscape:pageopacity="0"
     inkscape:pagecheckerboard="0"
     inkscape:document-units="mm"
     showgrid="false"
     width="199mm"
     inkscape:zoom="1.0289025"
     inkscape:cx="249.29475"
     inkscape:cy="208.96051"
     inkscape:window-width="1366"
     inkscape:window-height="695"
     inkscape:window-x="0"
     inkscape:window-y="0"
     inkscape:window-maximized="1"
     inkscape:current-layer="layer1" />
  <defs
     id="defs2" />
  <g
     inkscape:label="Layer 1"
     inkscape:groupmode="layer"
     id="layer1">
    <path
       style="fill:#552200;stroke-width:0.264583"
       id="path221"
       d="m 14.08697,98.677462 c -0.179562,-1.166006 -0.226082,-2.347987 -0.271974,-3.525311 -0.04776,-1.533486 -0.01754,-3.067291 -0.05188,-4.601099 -0.05214,-1.61153 -0.118673,-3.222546 -0.236113,-4.830712 -0.136215,-1.679155 -0.215983,-3.362087 -0.317548,-5.043525 -0.120804,-1.857034 -0.274375,-3.711691 -0.399412,-5.568442 -0.124466,-1.942576 -0.250449,-3.884898 -0.338827,-5.829496 -0.09424,-2.03867 -0.176374,-4.077631 -0.191607,-6.118545 0.02129,-1.988793 0.01211,-3.977711 0.04648,-5.966346 0.0269,-1.976779 0.09957,-3.952435 0.214693,-5.925947 0.124463,-1.819658 0.229462,-3.64041 0.331592,-5.461426 0.107711,-1.466614 0.100178,-2.93707 0.06579,-4.406087 -0.01551,-1.029748 -0.146989,-2.048571 -0.303273,-3.06437 -0.145155,-0.852199 -0.218397,-1.713587 -0.264401,-2.576068 -0.07236,-1.072835 -0.0052,-2.143265 0.118737,-3.208999 0.163391,-1.078875 0.29226,-2.161103 0.373313,-3.249163 0.06854,-0.988845 0.0706,-1.980324 0.07597,-2.970998 -0.01349,-0.989099 0.02786,-1.976771 0.08639,-2.963784 0.04197,-0.740188 0.06172,-1.481309 0.07167,-2.222537 0.04095,-0.429581 -0.04622,-0.875626 0.0419,-1.30034 0.08128,-0.06074 0.03283,-0.04798 0.150212,-0.005 -1.107774,0.644963 -2.221297,1.280154 -3.3233232,1.934891 -0.037753,0.02243 0.083143,-0.03096 0.1267932,-0.03576 0.118205,-0.01301 0.321192,0.0163 0.428795,0.02764 0.847626,0.131935 1.701046,0.216479 2.556451,0.276442 1.21887,0.05439 2.438574,0.06091 3.657416,0.119614 1.130704,0.05952 2.262513,0.0966 3.394264,0.12961 1.03963,0.02712 2.078619,0.06774 3.117242,0.120285 1.052501,0.06873 2.105912,0.111815 3.160643,0.09677 1.148774,-0.03552 2.29233,-0.157885 3.437989,-0.24331 0.997185,-0.07858 1.996892,-0.08557 2.996401,-0.08579 0.984099,-0.0011 1.967653,-0.05181 2.948619,-0.127424 0.772862,-0.06317 1.533126,-0.219869 2.293419,-0.365572 0.716574,-0.137929 1.437786,-0.248 2.16457,-0.31338 0.69556,-0.05262 1.393486,-0.05542 2.0906,-0.06333 1.026689,0.01794 2.032836,-0.187494 3.028034,-0.414616 0.782807,-0.178675 1.564719,-0.368478 2.359583,-0.48633 0.387245,-0.06465 0.769213,-0.02379 1.149305,0.05769 0.361519,0.09658 0.726501,0.1698 1.09836,0.210939 0.407667,0.04106 0.817652,0.01781 1.225992,0.0026 0.105542,-0.01834 0.732091,0.02097 0.717605,-0.08751 -0.19486,0.521964 -0.231296,1.158863 -0.313407,1.714239 -0.170365,1.178851 -0.11771,2.36851 -0.06035,3.552899 0.06829,1.110746 0.09207,2.223152 0.06816,3.33559 -0.01646,0.883002 -0.106619,1.761173 -0.20864,2.637565 -0.07972,0.719045 -0.124036,1.441127 -0.151365,2.163831 -0.02738,0.612299 -0.01767,1.225048 -0.02021,1.837653 5.29e-4,0.315971 -0.01455,0.632275 -0.0655,0.944333 0.0016,0.02614 -0.01312,0.05928 0.0047,0.07843 0.01675,0.01794 0.05152,0.01635 0.07349,0.0054 0.268494,-0.134419 0.525267,-0.291076 0.787901,-0.436613 0,0 1.7483,-0.720484 1.7483,-0.720484 v 0 c 0.282371,-0.160793 0.841663,-0.294725 0.948206,-0.689835 0.02432,-0.325443 0.03549,-0.652076 0.01982,-0.978289 -0.01656,-0.60284 -0.01789,-1.205772 0.0081,-1.808475 0.03106,-0.713861 0.07884,-1.427165 0.157184,-2.137537 0.0873,-0.883158 0.162438,-1.768461 0.164968,-2.656662 0.0058,-1.117738 -0.01625,-2.235026 -0.0904,-3.35064 -0.0538,-1.163988 -0.09926,-2.336039 0.112535,-3.488891 0.07274,-0.41455 0.360638,-1.49001 0.290246,-1.874886 -0.01344,-0.07343 -0.05317,-0.139502 -0.07975,-0.209254 -0.289756,-0.362586 -0.503698,-0.165039 -0.923459,-0.1689 -0.39614,0.02047 -0.792906,0.04164 -1.189678,0.03283 -0.360349,-0.0188 -0.719738,-0.05541 -1.066353,-0.162123 -0.407942,-0.102442 -0.8187,-0.205951 -1.243435,-0.162976 -0.825035,0.08823 -1.626116,0.319298 -2.4353,0.494244 -0.968798,0.225436 -1.944639,0.474553 -2.947077,0.460877 -0.70005,0.0022 -1.400709,-0.0047 -2.099937,0.03589 -0.73751,0.04881 -1.468371,0.146925 -2.194938,0.28388 -0.759944,0.137786 -1.513843,0.312615 -2.281603,0.403338 -0.975542,0.09889 -1.955937,0.153501 -2.936504,0.16267 -1.010428,-0.0048 -2.021367,-0.01201 -3.029329,0.07411 -1.139131,0.07952 -2.275382,0.199478 -3.416416,0.250798 -1.047702,0.03468 -2.094299,10e-4 -3.139865,-0.07457 -1.043287,-0.05983 -2.087127,-0.09724 -3.131879,-0.120618 -1.132454,-0.03769 -2.265399,-0.06278 -3.397146,-0.119618 -1.213828,-0.05761 -2.428146,-0.08123 -3.64255,-0.119808 -0.832858,-0.05792 -1.665841,-0.135637 -2.487607,-0.287328 -0.02274,-0.0044 -0.610684,-0.125441 -0.614361,-0.123514 -2.447574,1.282872 -3.4939442,0.697383 -3.5543769,2.244477 -0.00233,0.436669 0.024863,0.873362 0.012764,1.310186 -0.00738,0.733133 -0.021513,1.466223 -0.05692,2.198623 -0.038809,0.99074 -0.07402,1.981885 -0.068242,2.973585 -0.00607,0.982049 -0.018426,1.964741 -0.084769,2.944908 -0.083458,1.077624 -0.2233787,2.14874 -0.3475299,3.222212 -0.1104826,1.087552 -0.1832099,2.181794 -0.1081043,3.274677 0.050726,0.876281 0.119312,1.751944 0.273925,2.617113 0.1688071,0.990637 0.3002389,1.988087 0.3279227,2.994024 0.049096,1.451629 0.046607,2.903813 -0.031085,4.35468 -0.081931,1.817327 -0.2099866,3.631946 -0.3071789,5.448479 -0.090945,1.976372 -0.1701422,3.953307 -0.1939621,5.931853 -0.017566,1.986044 -0.027408,3.972353 -0.010268,5.958424 0.034493,2.042139 0.1076565,4.082836 0.2141672,6.122535 0.1048562,1.938433 0.2246746,3.876316 0.3985136,5.809962 0.1620496,1.845686 0.303068,3.693057 0.4462946,5.540282 0.126567,1.673604 0.220976,3.349583 0.368317,5.021628 0.13515,1.582631 0.287504,3.164279 0.355229,4.751811 0.06983,1.512466 0.111621,3.026066 0.184924,4.5384 0.07161,1.178507 0.157111,2.357607 0.371316,3.520539 0,0 2.76198,-1.471143 2.76198,-1.471143 z" />
  </g>
</svg>
