<?xml version="1.0" encoding="UTF-8" standalone="no"?>
<!-- Created with Inkscape (http://www.inkscape.org/) -->

<svg
   width="100mm"
   height="100mm"
   viewBox="0 0 100 100"
   version="1.1"
   id="svg5"
   sodipodi:docname="4.svg"
   inkscape:version="1.1.2 (0a00cf5339, 2022-02-04)"
   xmlns:inkscape="http://www.inkscape.org/namespaces/inkscape"
   xmlns:sodipodi="http://sodipodi.sourceforge.net/DTD/sodipodi-0.dtd"
   xmlns="http://www.w3.org/2000/svg"
   xmlns:svg="http://www.w3.org/2000/svg">
  <sodipodi:namedview
     id="namedview7"
     pagecolor="#ffffff"
     bordercolor="#999999"
     borderopacity="1"
     inkscape:pageshadow="0"
     inkscape:pageopacity="0"
     inkscape:pagecheckerboard="0"
     inkscape:document-units="mm"
     showgrid="false"
     width="199mm"
     inkscape:zoom="1.0289025"
     inkscape:cx="249.29475"
     inkscape:cy="208.96051"
     inkscape:window-width="1366"
     inkscape:window-height="695"
     inkscape:window-x="0"
     inkscape:window-y="0"
     inkscape:window-maximized="1"
     inkscape:current-layer="layer1" />
  <defs
     id="defs2" />
  <g
     inkscape:label="Layer 1"
     inkscape:groupmode="layer"
     id="layer1">
    <path
       style="fill:#552200;stroke-width:0.264583"
       id="path221"
       d="m 14.08697,98.677462 c -0.179562,-1.166006 -0.226082,-2.347987 -0.271974,-3.525311 -0.04776,-1.533486 -0.01754,-3.067291 -0.05188,-4.601099 -0.05214,-1.61153 -0.118673,-3.222546 -0.236113,-4.830712 -0.136215,-1.679155 -0.215983,-3.362087 -0.317548,-5.043525 -0.120804,-1.857034 -0.274375,-3.711691 -0.399412,-5.568442 -0.124466,-1.942576 -0.250449,-3.884898 -0.338827,-5.829496 -0.09424,-2.03867 -0.176374,-4.077631 -0.191607,-6.118545 0.02129,-1.988793 0.01211,-3.977711 0.04648,-5.966346 0.0269,-1.976779 0.09957,-3.952435 0.214693,-5.925947 0.124463,-1.819658 0.229462,-3.64041 0.331592,-5.461426 0.107711,-1.466614 0.100178,-2.93707 0.06579,-4.406087 -0.01551,-1.029748 -0.146989,-2.048571 -0.303273,-3.06437 -0.145155,-0.852199 -0.218397,-1.713587 -0.264401,-2.576068 -0.07236,-1.072835 -0.0052,-2.143265 0.118737,-3.208999 0.163391,-1.078875 0.29226,-2.161103 0.373313,-3.249163 0.06854,-0.988845 0.0706,-1.980324 0.07597,-2.970998 -0.01349,-0.989099 0.02786,-1.976771 0.08639,-2.963784 0.04197,-0.740188 0.06172,-1.481309 0.07167,-2.222537 0.04095,-0.429581 -0.04622,-0.875626 0.0419,-1.30034 0.08128,-0.06074 0.03283,-0.04798 0.150212,-0.005 -1.107774,0.644963 -2.221297,1.280154 -3.3233232,1.934891 -0.037753,0.02243 0.083143,-0.03096 0.1267932,-0.03576 0.118205,-0.01301 0.321192,0.0163 0.428795,0.02764 0.847626,0.131935 1.701046,0.216479 2.556451,0.276442 1.21887,0.05439 2.438574,0.06091 3.657416,0.119614 1.130704,0.05952 2.262513,0.0966 3.394264,0.12961 1.03963,0.02712 2.078619,0.06774 3.117242,0.120285 1.052501,0.06873 2.105912,0.111815 3.160643,0.09677 1.148774,-0.03552 2.29233,-0.157885 3.437989,-0.24331 0.997185,-0.07858 1.996892,-0.08557 2.996401,-0.08579 0.984099,-0.0011 1.967653,-0.05181 2.948619,-0.127424 0.772862,-0.06317 1.533126,-0.219869 2.293419,-0.365572 0.716574,-0.137929 1.437786,-0.248 2.16457,-0.31338 0.69556,-0.05262 1.393486,-0.05542 2.0906,-0.06333 1.026689,0.01794 2.032836,-0.187494 3.028034,-0.414616 0.782807,-0.178675 1.564719,-0.368478 2.359583,-0.48633 0.387245,-0.06465 0.769213,-0.02379 1.149305,0.05769 0.361519,0.09658 0.726501,0.1698 1.09836,0.210939 0.407667,0.04106 0.817652,0.01781 1.225992,0.0026 0.105542,-0.01834 0.732091,0.02097 0.717605,-0.08751 -0.19486,0.521964 -0.231296,1.158863 -0.313407,1.714239 -0.170365,1.178851 -0.11771,2.36851 -0.06035,3.552899 0.06829,1.110746 0.09207,2.223152 0.06816,3.33559 -0.01646,0.883002 -0.106619,1.761173 -0.20864,2.637565 -0.07972,0.719045 -0.124036,1.441127 -0.151365,2.163831 -0.02738,0.612299 -0.01767,1.225048 -0.02021,1.837653 5.29e-4,0.315971 -0.01455,0.632275 -0.0655,0.944333 0.0016,0.02614 -0.01312,0.05928 0.0047,0.07843 0.01675,0.01794 0.05152,0.01635 0.07349,0.0054 0.268494,-0.134419 0.525267,-0.291076 0.787901,-0.436613 0,0 1.7483,-0.720484 1.7483,-0.720484 v 0 c 0.282371,-0.160793 0.841663,-0.294725 0.948206,-0.689835 0.02432,-0.325443 0.03549,-0.652076 0.01982,-0.978289 -0.01656,-0.60284 -0.01789,-1.205772 0.0081,-1.808475 0.03106,-0.713861 0.07884,-1.427165 0.157184,-2.137537 0.0873,-0.883158 0.162438,-1.768461 0.164968,-2.656662 0.0058,-1.117738 -0.01625,-2.235026 -0.0904,-3.35064 -0.0538,-1.163988 -0.09926,-2.336039 0.112535,-3.488891 0.07274,-0.41455 0.360638,-1.49001 0.290246,-1.874886 -0.01344,-0.07343 -0.05317,-0.139502 -0.07975,-0.209254 -0.289756,-0.362586 -0.503698,-0.165039 -0.923459,-0.1689 -0.39614,0.02047 -0.792906,0.04164 -1.189678,0.03283 -0.360349,-0.0188 -0.719738,-0.05541 -1.066353,-0.162123 -0.407942,-0.102442 -0.8187,-0.205951 -1.243435,-0.162976 -0.825035,0.08823 -1.626116,0.319298 -2.4353,0.494244 -0.968798,0.225436 -1.944639,0.474553 -2.947077,0.460877 -0.70005,0.0022 -1.400709,-0.0047 -2.099937,0.03589 -0.73751,0.04881 -1.468371,0.146925 -2.194938,0.28388 -0.759944,0.137786 -1.513843,0.312615 -2.281603,0.403338 -0.975542,0.09889 -1.955937,0.153501 -2.936504,0.16267 -1.010428,-0.0048 -2.021367,-0.01201 -3.029329,0.07411 -1.139131,0.07952 -2.275382,0.199478 -3.416416,0.250798 -1.047702,0.03468 -2.094299,10e-4 -3.139865,-0.07457 -1.043287,-0.05983 -2.087127,-0.09724 -3.131879,-0.120618 -1.132454,-0.03769 -2.265399,-0.06278 -3.397146,-0.119618 -1.213828,-0.05761 -2.428146,-0.08123 -3.64255,-0.119808 -0.832858,-0.05792 -1.665841,-0.135637 -2.487607,-0.287328 -0.02274,-0.0044 -0.610684,-0.125441 -0.614361,-0.123514 -2.447574,1.282872 -3.4939442,0.697383 -3.5543769,2.244477 -0.00233,0.436669 0.024863,0.873362 0.012764,1.310186 -0.00738,0.733133 -0.021513,1.466223 -0.05692,2.198623 -0.038809,0.99074 -0.07402,1.981885 -0.068242,2.973585 -0.00607,0.982049 -0.018426,1.964741 -0.084769,2.944908 -0.083458,1.077624 -0.2233787,2.14874 -0.3475299,3.222212 -0.1104826,1.087552 -0.1832099,2.181794 -0.1081043,3.274677 0.050726,0.876281 0.119312,1.751944 0.273925,2.617113 0.1688071,0.990637 0.3002389,1.988087 0.3279227,2.994024 0.049096,1.451629 0.046607,2.903813 -0.031085,4.35468 -0.081931,1.817327 -0.2099866,3.631946 -0.3071789,5.448479 -0.090945,1.976372 -0.1701422,3.953307 -0.1939621,5.931853 -0.017566,1.986044 -0.027408,3.972353 -0.010268,5.958424 0.034493,2.042139 0.1076565,4.082836 0.2141672,6.122535 0.1048562,1.938433 0.2246746,3.876316 0.3985136,5.809962 0.1620496,1.845686 0.303068,3.693057 0.4462946,5.540282 0.126567,1.673604 0.220976,3.349583 0.368317,5.021628 0.13515,1.582631 0.287504,3.164279 0.355229,4.751811 0.06983,1.512466 0.111621,3.026066 0.184924,4.5384 0.07161,1.178507 0.157111,2.357607 0.371316,3.520539 0,0 2.76198,-1.471143 2.76198,-1.471143 z" />
    <path
       style="fill:#000000;stroke-width:0.264583"
       id="path458"
       d="m 54.456467,34.304896 c -0.856237,0.123489 -1.69186,0.345625 -2.524403,0.575048 -2.000181,0.616365 -4.087773,1.531482 -5.547706,3.047267 -0.590098,0.691541 -0.860563,1.531567 -1.048555,2.402975 -0.1446,0.774718 -0.137599,1.567995 -0.07135,2.350328 0.05854,0.739576 0.291571,1.423064 0.622141,2.080228 0.370975,0.744418 0.959377,1.321178 1.566924,1.87275 0.740463,0.655669 1.570323,1.190207 2.467538,1.601629 0.990357,0.386246 2.045049,0.493704 3.099104,0.489098 0.777727,-0.03627 1.560928,-0.171617 2.240503,-0.572307 1.233601,-0.727356 2.45763,-1.470816 3.686444,-2.206226 0.686271,-0.617995 1.100625,-1.446839 1.504472,-2.261131 0.383899,-0.78894 0.624059,-1.630368 0.803473,-2.485716 0.166473,-0.783164 0.194569,-1.579946 0.166164,-2.376932 -0.01588,-0.701286 -0.170437,-1.375595 -0.433044,-2.022623 -0.280665,-0.623091 -0.735764,-1.102474 -1.26402,-1.520611 -0.548357,-0.429175 -1.177007,-0.726463 -1.81355,-0.998159 -0.441624,-0.173323 -0.879075,-0.356952 -1.319178,-0.534019 -0.353433,-0.07899 -0.709917,-0.361153 -1.078222,-0.367033 -0.683786,-0.01093 -1.287298,0.246526 -1.933829,0.440135 -0.469506,0.179239 -0.939014,0.358479 -1.40852,0.537718 0,0 -0.06452,0.04729 -0.06452,0.04729 v 0 c -0.0068,0.159864 -0.01365,0.319726 -0.02048,0.479587 -0.0028,0.1544 -0.04795,0.313931 -0.0084,0.463198 0.09261,0.349329 0.908188,0.426876 1.225378,0.604668 0.446799,0.172458 0.891366,0.35084 1.341829,0.513673 0.615958,0.237998 1.221944,0.513678 1.755328,0.908465 0.482306,0.363964 0.907436,0.7796 1.154004,1.343517 0.241128,0.606835 0.369335,1.239486 0.378651,1.894607 0.01746,0.767276 -0.02878,1.533787 -0.198364,2.284844 -0.193307,0.827828 -0.451485,1.639684 -0.844669,2.396776 -0.405408,0.784183 -0.847008,1.559467 -1.57499,2.091534 0.994172,-0.563568 1.983771,-1.135272 2.98251,-1.690704 0.128127,-0.07126 -0.242427,0.165548 -0.369996,0.237795 -0.542478,0.307234 -1.150324,0.438382 -1.766004,0.497091 -1.012023,0.04885 -2.027751,-0.02429 -2.993564,-0.354939 -0.879084,-0.363646 -1.682414,-0.864288 -2.395141,-1.497973 -0.572156,-0.515672 -1.125365,-1.059084 -1.475692,-1.756304 -0.30031,-0.614336 -0.508466,-1.258633 -0.552919,-1.946256 -0.05043,-0.747456 -0.03171,-1.495872 0.09044,-2.236677 0.1593,-0.789881 0.433509,-1.549725 1.012984,-2.133893 1.135901,-0.975066 0.391856,-0.301837 -2.530078,1.338712 -0.125916,0.0707 0.245403,-0.152847 0.373628,-0.219263 0.441479,-0.228671 0.917798,-0.378052 1.385626,-0.540686 0.855519,-0.267592 1.716926,-0.526254 2.600415,-0.684993 0,0 2.779628,-2.092489 2.779628,-2.092489 z" />
    <path
       style="fill:#000000;stroke-width:0.264583"
       id="path482"
       d="m 50.972907,49.121528 c -0.04994,1.018018 -0.148825,2.033352 -0.236664,3.048778 -0.07613,0.963062 -0.201126,1.921211 -0.284335,2.883638 -0.06857,0.67039 -0.107238,1.342358 -0.126312,2.015789 -0.01635,0.677026 -0.02048,1.354296 -0.02259,2.031513 -7.94e-4,0.599249 -0.02588,1.198001 -0.03849,1.797037 -0.01495,0.703024 -0.0046,1.406075 -0.0021,2.109141 0.0036,0.67686 -0.02723,1.353262 -0.07494,2.028262 -0.02661,0.396899 -0.0579,0.793533 -0.101002,1.189003 -0.02244,0.293994 -0.03562,0.58829 -0.05917,0.882295 -0.02106,0.323155 -0.02694,0.647221 -0.03671,0.97091 -0.0058,0.185936 -0.0016,0.372017 -0.02222,0.557133 -0.0104,0.149892 -0.01543,0.300104 -0.01818,0.45031 -7.93e-4,0.149085 0.01648,0.297614 0.02545,0.44635 0.008,0.144161 0.02833,0.286806 0.03538,0.431144 0.0064,0.206586 0.0091,0.413356 0.0097,0.620043 0.0033,0.238466 -0.0088,0.476676 -0.0113,0.715092 -0.0067,0.23396 -0.0048,0.467945 -0.0051,0.701942 6.6e-5,0.191259 0.01611,0.381812 0.02363,0.572802 7.94e-4,0.167878 0.03148,0.334216 0.06304,0.498633 0.04915,0.195218 0.0604,0.396309 0.0794,0.595953 0.0222,0.258339 0.02667,0.517708 0.02738,0.776854 0.0039,0.196173 -0.0122,0.391792 -0.0254,0.587319 -0.0056,0.09428 -0.05555,0.128466 0.0494,0.158229 0,0 3.424851,-1.705403 3.424851,-1.705403 v 0 c 0.07857,-0.09496 0.08798,-0.121407 0.08335,-0.240837 0.0088,-0.203775 0.01503,-0.407784 0.0075,-0.611728 -0.0098,-0.267007 -0.02117,-0.534093 -0.04386,-0.800367 -0.0186,-0.210479 -0.03995,-0.420349 -0.08509,-0.627121 -0.02178,-0.151624 -0.03988,-0.302982 -0.04091,-0.45648 -0.01032,-0.183528 -0.02405,-0.367022 -0.02196,-0.551 0.0011,-0.231891 0.0052,-0.46378 0.0077,-0.695661 0.007,-0.241276 0.01109,-0.482526 0.0078,-0.723913 -0.0011,-0.214448 2.64e-4,-0.428951 -0.01326,-0.643118 -0.01003,-0.144965 -0.02721,-0.289314 -0.03371,-0.434557 -0.0097,-0.138263 -0.01667,-0.276576 -0.0078,-0.415139 0.0045,-0.145497 0.01209,-0.290822 0.02289,-0.435996 0.0034,-0.189071 0.0032,-0.378169 0.0031,-0.567269 0.0013,-0.316249 0.0097,-0.632085 0.03156,-0.947666 0.01394,-0.288671 0.01627,-0.577962 0.04309,-0.865976 0.02228,-0.392123 0.04067,-0.784265 0.04918,-1.176962 0.02101,-0.676336 0.04277,-1.352989 0.02461,-2.029704 -0.01341,-0.697915 -0.02162,-1.396156 0.0013,-2.093997 0.01482,-0.598627 0.03038,-1.197337 0.01826,-1.796206 -0.0011,-0.670933 -0.0048,-1.341728 0.006,-2.012627 0.01463,-0.656463 0.0473,-1.312307 0.0719,-1.968423 0.0561,-0.948275 0.146164,-1.89388 0.201792,-2.84222 0.0608,-1.016207 0.128191,-2.032522 0.224364,-3.045987 0,0 -3.231414,1.620187 -3.231414,1.620187 z" />
    <path
       style="fill:#000000;stroke-width:0.264583"
       id="path507"
       d="m 53.114122,57.875315 c -0.887458,-0.578959 -1.765475,-1.172623 -2.651181,-1.754534 -1.073957,-0.691976 -2.121506,-1.423379 -3.132375,-2.204493 -0.758614,-0.619847 -1.480238,-1.278477 -2.271879,-1.856811 -0.736479,-0.531498 -1.493798,-1.032031 -2.259566,-1.51996 -0.673166,-0.430757 -1.365969,-0.829019 -2.03236,-1.270436 -0.486732,-0.33732 -0.988851,-0.660744 -1.422236,-1.066652 -0.178112,-0.152665 -0.34463,-0.318659 -0.524991,-0.468691 -0.250542,-0.03917 -0.02884,-0.01199 -0.626748,0.23709 0,0 -2.057879,1.522177 -2.057879,1.522177 v 0 c -0.57504,0.24614 -0.592312,0.03879 -0.561086,0.273527 0.191453,0.15545 0.399341,0.289562 0.597451,0.436126 0.515397,0.332718 1.00113,0.709583 1.516581,1.042635 0.680521,0.435208 1.380643,0.836737 2.074756,1.249685 0.771941,0.480092 1.543289,0.961972 2.296187,1.471586 0.810429,0.566219 1.582018,1.184355 2.364981,1.787494 1.052364,0.772345 2.160434,1.458661 3.268966,2.146768 0.911585,0.574683 1.826385,1.144026 2.745124,1.707171 0,0 2.676255,-1.732682 2.676255,-1.732682 z" />
    <path
       style="fill:#000000;stroke-width:0.264583"
       id="path535"
       d="m 55.090776,57.526967 c 1.076159,-1.054359 2.148938,-2.110915 3.265493,-3.122729 1.167511,-1.034505 2.348852,-2.053574 3.553711,-3.044386 0.75555,-0.608282 1.525252,-1.199202 2.251427,-1.842772 0.479251,-0.455578 0.91634,-0.952101 1.347261,-1.452782 0.303745,-0.373356 0.592569,-0.757886 0.918538,-1.11252 0.164717,-0.189066 0.352904,-0.351666 0.542023,-0.514517 0.129688,-0.10845 0.24779,-0.224787 0.358598,-0.351967 0.132672,-0.134133 0.261292,-0.271233 0.394758,-0.404577 0.100248,-0.108442 0.215374,-0.201033 0.315648,-0.309147 0.07912,-0.110665 0.150117,-0.2198 0.249251,-0.313876 0.03284,-0.0353 0.105407,-0.09447 -0.04683,-0.03196 -0.253497,0.104093 -0.501366,0.221391 -0.752051,0.332087 0,0 -1.846292,0.725088 -1.846292,0.725088 v 0 c -0.29745,0.137837 -0.748154,0.281958 -1.02793,0.524187 -0.07764,0.104963 -0.152119,0.209963 -0.258834,0.288459 -0.108381,0.09889 -0.20619,0.208069 -0.3102,0.311518 -0.131162,0.135239 -0.258006,0.27455 -0.392882,0.406271 -0.121738,0.111463 -0.250476,0.21519 -0.369959,0.329406 -0.179454,0.170569 -0.336897,0.363429 -0.500849,0.548484 -0.302995,0.367051 -0.589758,0.747307 -0.902422,1.106355 -0.425622,0.485465 -0.857247,0.968018 -1.344903,1.392991 -0.722773,0.620141 -1.47533,1.203992 -2.205932,1.814796 -1.174509,0.990957 -2.342094,1.991098 -3.472738,3.032106 -1.080818,1.012759 -2.132161,2.055596 -3.184597,3.097702 0,0 3.419713,-1.408218 3.419713,-1.408218 z" />
  </g>
</svg>
