<?xml version="1.0" encoding="UTF-8" standalone="no"?>
<!-- Created with Inkscape (http://www.inkscape.org/) -->

<svg
   width="100mm"
   height="100mm"
   viewBox="0 0 100 100"
   version="1.1"
   id="svg5"
   sodipodi:docname="6.svg"
   inkscape:version="1.1.2 (0a00cf5339, 2022-02-04)"
   xmlns:inkscape="http://www.inkscape.org/namespaces/inkscape"
   xmlns:sodipodi="http://sodipodi.sourceforge.net/DTD/sodipodi-0.dtd"
   xmlns="http://www.w3.org/2000/svg"
   xmlns:svg="http://www.w3.org/2000/svg">
  <sodipodi:namedview
     id="namedview7"
     pagecolor="#ffffff"
     bordercolor="#999999"
     borderopacity="1"
     inkscape:pageshadow="0"
     inkscape:pageopacity="0"
     inkscape:pagecheckerboard="0"
     inkscape:document-units="mm"
     showgrid="false"
     width="199mm"
     inkscape:zoom="1.0289025"
     inkscape:cx="249.29475"
     inkscape:cy="208.96051"
     inkscape:window-width="1366"
     inkscape:window-height="695"
     inkscape:window-x="0"
     inkscape:window-y="0"
     inkscape:window-maximized="1"
     inkscape:current-layer="layer1" />
  <defs
     id="defs2" />
  <g
     inkscape:label="Layer 1"
     inkscape:groupmode="layer"
     id="layer1">
    <path
       style="fill:#552200;stroke-width:0.264583"
       id="path221"
       d="m 14.08697,98.677462 c -0.179562,-1.166006 -0.226082,-2.347987 -0.271974,-3.525311 -0.04776,-1.533486 -0.01754,-3.067291 -0.05188,-4.601099 -0.05214,-1.61153 -0.118673,-3.222546 -0.236113,-4.830712 -0.136215,-1.679155 -0.215983,-3.362087 -0.317548,-5.043525 -0.120804,-1.857034 -0.274375,-3.711691 -0.399412,-5.568442 -0.124466,-1.942576 -0.250449,-3.884898 -0.338827,-5.829496 -0.09424,-2.03867 -0.176374,-4.077631 -0.191607,-6.118545 0.02129,-1.988793 0.01211,-3.977711 0.04648,-5.966346 0.0269,-1.976779 0.09957,-3.952435 0.214693,-5.925947 0.124463,-1.819658 0.229462,-3.64041 0.331592,-5.461426 0.107711,-1.466614 0.100178,-2.93707 0.06579,-4.406087 -0.01551,-1.029748 -0.146989,-2.048571 -0.303273,-3.06437 -0.145155,-0.852199 -0.218397,-1.713587 -0.264401,-2.576068 -0.07236,-1.072835 -0.0052,-2.143265 0.118737,-3.208999 0.163391,-1.078875 0.29226,-2.161103 0.373313,-3.249163 0.06854,-0.988845 0.0706,-1.980324 0.07597,-2.970998 -0.01349,-0.989099 0.02786,-1.976771 0.08639,-2.963784 0.04197,-0.740188 0.06172,-1.481309 0.07167,-2.222537 0.04095,-0.429581 -0.04622,-0.875626 0.0419,-1.30034 0.08128,-0.06074 0.03283,-0.04798 0.150212,-0.005 -1.107774,0.644963 -2.221297,1.280154 -3.3233232,1.934891 -0.037753,0.02243 0.083143,-0.03096 0.1267932,-0.03576 0.118205,-0.01301 0.321192,0.0163 0.428795,0.02764 0.847626,0.131935 1.701046,0.216479 2.556451,0.276442 1.21887,0.05439 2.438574,0.06091 3.657416,0.119614 1.130704,0.05952 2.262513,0.0966 3.394264,0.12961 1.03963,0.02712 2.078619,0.06774 3.117242,0.120285 1.052501,0.06873 2.105912,0.111815 3.160643,0.09677 1.148774,-0.03552 2.29233,-0.157885 3.437989,-0.24331 0.997185,-0.07858 1.996892,-0.08557 2.996401,-0.08579 0.984099,-0.0011 1.967653,-0.05181 2.948619,-0.127424 0.772862,-0.06317 1.533126,-0.219869 2.293419,-0.365572 0.716574,-0.137929 1.437786,-0.248 2.16457,-0.31338 0.69556,-0.05262 1.393486,-0.05542 2.0906,-0.06333 1.026689,0.01794 2.032836,-0.187494 3.028034,-0.414616 0.782807,-0.178675 1.564719,-0.368478 2.359583,-0.48633 0.387245,-0.06465 0.769213,-0.02379 1.149305,0.05769 0.361519,0.09658 0.726501,0.1698 1.09836,0.210939 0.407667,0.04106 0.817652,0.01781 1.225992,0.0026 0.105542,-0.01834 0.732091,0.02097 0.717605,-0.08751 -0.19486,0.521964 -0.231296,1.158863 -0.313407,1.714239 -0.170365,1.178851 -0.11771,2.36851 -0.06035,3.552899 0.06829,1.110746 0.09207,2.223152 0.06816,3.33559 -0.01646,0.883002 -0.106619,1.761173 -0.20864,2.637565 -0.07972,0.719045 -0.124036,1.441127 -0.151365,2.163831 -0.02738,0.612299 -0.01767,1.225048 -0.02021,1.837653 5.29e-4,0.315971 -0.01455,0.632275 -0.0655,0.944333 0.0016,0.02614 -0.01312,0.05928 0.0047,0.07843 0.01675,0.01794 0.05152,0.01635 0.07349,0.0054 0.268494,-0.134419 0.525267,-0.291076 0.787901,-0.436613 0,0 1.7483,-0.720484 1.7483,-0.720484 v 0 c 0.282371,-0.160793 0.841663,-0.294725 0.948206,-0.689835 0.02432,-0.325443 0.03549,-0.652076 0.01982,-0.978289 -0.01656,-0.60284 -0.01789,-1.205772 0.0081,-1.808475 0.03106,-0.713861 0.07884,-1.427165 0.157184,-2.137537 0.0873,-0.883158 0.162438,-1.768461 0.164968,-2.656662 0.0058,-1.117738 -0.01625,-2.235026 -0.0904,-3.35064 -0.0538,-1.163988 -0.09926,-2.336039 0.112535,-3.488891 0.07274,-0.41455 0.360638,-1.49001 0.290246,-1.874886 -0.01344,-0.07343 -0.05317,-0.139502 -0.07975,-0.209254 -0.289756,-0.362586 -0.503698,-0.165039 -0.923459,-0.1689 -0.39614,0.02047 -0.792906,0.04164 -1.189678,0.03283 -0.360349,-0.0188 -0.719738,-0.05541 -1.066353,-0.162123 -0.407942,-0.102442 -0.8187,-0.205951 -1.243435,-0.162976 -0.825035,0.08823 -1.626116,0.319298 -2.4353,0.494244 -0.968798,0.225436 -1.944639,0.474553 -2.947077,0.460877 -0.70005,0.0022 -1.400709,-0.0047 -2.099937,0.03589 -0.73751,0.04881 -1.468371,0.146925 -2.194938,0.28388 -0.759944,0.137786 -1.513843,0.312615 -2.281603,0.403338 -0.975542,0.09889 -1.955937,0.153501 -2.936504,0.16267 -1.010428,-0.0048 -2.021367,-0.01201 -3.029329,0.07411 -1.139131,0.07952 -2.275382,0.199478 -3.416416,0.250798 -1.047702,0.03468 -2.094299,10e-4 -3.139865,-0.07457 -1.043287,-0.05983 -2.087127,-0.09724 -3.131879,-0.120618 -1.132454,-0.03769 -2.265399,-0.06278 -3.397146,-0.119618 -1.213828,-0.05761 -2.428146,-0.08123 -3.64255,-0.119808 -0.832858,-0.05792 -1.665841,-0.135637 -2.487607,-0.287328 -0.02274,-0.0044 -0.610684,-0.125441 -0.614361,-0.123514 -2.447574,1.282872 -3.4939442,0.697383 -3.5543769,2.244477 -0.00233,0.436669 0.024863,0.873362 0.012764,1.310186 -0.00738,0.733133 -0.021513,1.466223 -0.05692,2.198623 -0.038809,0.99074 -0.07402,1.981885 -0.068242,2.973585 -0.00607,0.982049 -0.018426,1.964741 -0.084769,2.944908 -0.083458,1.077624 -0.2233787,2.14874 -0.3475299,3.222212 -0.1104826,1.087552 -0.1832099,2.181794 -0.1081043,3.274677 0.050726,0.876281 0.119312,1.751944 0.273925,2.617113 0.1688071,0.990637 0.3002389,1.988087 0.3279227,2.994024 0.049096,1.451629 0.046607,2.903813 -0.031085,4.35468 -0.081931,1.817327 -0.2099866,3.631946 -0.3071789,5.448479 -0.090945,1.976372 -0.1701422,3.953307 -0.1939621,5.931853 -0.017566,1.986044 -0.027408,3.972353 -0.010268,5.958424 0.034493,2.042139 0.1076565,4.082836 0.2141672,6.122535 0.1048562,1.938433 0.2246746,3.876316 0.3985136,5.809962 0.1620496,1.845686 0.303068,3.693057 0.4462946,5.540282 0.126567,1.673604 0.220976,3.349583 0.368317,5.021628 0.13515,1.582631 0.287504,3.164279 0.355229,4.751811 0.06983,1.512466 0.111621,3.026066 0.184924,4.5384 0.07161,1.178507 0.157111,2.357607 0.371316,3.520539 0,0 2.76198,-1.471143 2.76198,-1.471143 z" />
    <path
       style="fill:#000000;stroke-width:0.264583"
       id="path458"
       d="m 54.456467,34.304896 c -0.856237,0.123489 -1.69186,0.345625 -2.524403,0.575048 -2.000181,0.616365 -4.087773,1.531482 -5.547706,3.047267 -0.590098,0.691541 -0.860563,1.531567 -1.048555,2.402975 -0.1446,0.774718 -0.137599,1.567995 -0.07135,2.350328 0.05854,0.739576 0.291571,1.423064 0.622141,2.080228 0.370975,0.744418 0.959377,1.321178 1.566924,1.87275 0.740463,0.655669 1.570323,1.190207 2.467538,1.601629 0.990357,0.386246 2.045049,0.493704 3.099104,0.489098 0.777727,-0.03627 1.560928,-0.171617 2.240503,-0.572307 1.233601,-0.727356 2.45763,-1.470816 3.686444,-2.206226 0.686271,-0.617995 1.100625,-1.446839 1.504472,-2.261131 0.383899,-0.78894 0.624059,-1.630368 0.803473,-2.485716 0.166473,-0.783164 0.194569,-1.579946 0.166164,-2.376932 -0.01588,-0.701286 -0.170437,-1.375595 -0.433044,-2.022623 -0.280665,-0.623091 -0.735764,-1.102474 -1.26402,-1.520611 -0.548357,-0.429175 -1.177007,-0.726463 -1.81355,-0.998159 -0.441624,-0.173323 -0.879075,-0.356952 -1.319178,-0.534019 -0.353433,-0.07899 -0.709917,-0.361153 -1.078222,-0.367033 -0.683786,-0.01093 -1.287298,0.246526 -1.933829,0.440135 -0.469506,0.179239 -0.939014,0.358479 -1.40852,0.537718 0,0 -0.06452,0.04729 -0.06452,0.04729 v 0 c -0.0068,0.159864 -0.01365,0.319726 -0.02048,0.479587 -0.0028,0.1544 -0.04795,0.313931 -0.0084,0.463198 0.09261,0.349329 0.908188,0.426876 1.225378,0.604668 0.446799,0.172458 0.891366,0.35084 1.341829,0.513673 0.615958,0.237998 1.221944,0.513678 1.755328,0.908465 0.482306,0.363964 0.907436,0.7796 1.154004,1.343517 0.241128,0.606835 0.369335,1.239486 0.378651,1.894607 0.01746,0.767276 -0.02878,1.533787 -0.198364,2.284844 -0.193307,0.827828 -0.451485,1.639684 -0.844669,2.396776 -0.405408,0.784183 -0.847008,1.559467 -1.57499,2.091534 0.994172,-0.563568 1.983771,-1.135272 2.98251,-1.690704 0.128127,-0.07126 -0.242427,0.165548 -0.369996,0.237795 -0.542478,0.307234 -1.150324,0.438382 -1.766004,0.497091 -1.012023,0.04885 -2.027751,-0.02429 -2.993564,-0.354939 -0.879084,-0.363646 -1.682414,-0.864288 -2.395141,-1.497973 -0.572156,-0.515672 -1.125365,-1.059084 -1.475692,-1.756304 -0.30031,-0.614336 -0.508466,-1.258633 -0.552919,-1.946256 -0.05043,-0.747456 -0.03171,-1.495872 0.09044,-2.236677 0.1593,-0.789881 0.433509,-1.549725 1.012984,-2.133893 1.135901,-0.975066 0.391856,-0.301837 -2.530078,1.338712 -0.125916,0.0707 0.245403,-0.152847 0.373628,-0.219263 0.441479,-0.228671 0.917798,-0.378052 1.385626,-0.540686 0.855519,-0.267592 1.716926,-0.526254 2.600415,-0.684993 0,0 2.779628,-2.092489 2.779628,-2.092489 z" />
    <path
       style="fill:#000000;stroke-width:0.264583"
       id="path482"
       d="m 50.972907,49.121528 c -0.04994,1.018018 -0.148825,2.033352 -0.236664,3.048778 -0.07613,0.963062 -0.201126,1.921211 -0.284335,2.883638 -0.06857,0.67039 -0.107238,1.342358 -0.126312,2.015789 -0.01635,0.677026 -0.02048,1.354296 -0.02259,2.031513 -7.94e-4,0.599249 -0.02588,1.198001 -0.03849,1.797037 -0.01495,0.703024 -0.0046,1.406075 -0.0021,2.109141 0.0036,0.67686 -0.02723,1.353262 -0.07494,2.028262 -0.02661,0.396899 -0.0579,0.793533 -0.101002,1.189003 -0.02244,0.293994 -0.03562,0.58829 -0.05917,0.882295 -0.02106,0.323155 -0.02694,0.647221 -0.03671,0.97091 -0.0058,0.185936 -0.0016,0.372017 -0.02222,0.557133 -0.0104,0.149892 -0.01543,0.300104 -0.01818,0.45031 -7.93e-4,0.149085 0.01648,0.297614 0.02545,0.44635 0.008,0.144161 0.02833,0.286806 0.03538,0.431144 0.0064,0.206586 0.0091,0.413356 0.0097,0.620043 0.0033,0.238466 -0.0088,0.476676 -0.0113,0.715092 -0.0067,0.23396 -0.0048,0.467945 -0.0051,0.701942 6.6e-5,0.191259 0.01611,0.381812 0.02363,0.572802 7.94e-4,0.167878 0.03148,0.334216 0.06304,0.498633 0.04915,0.195218 0.0604,0.396309 0.0794,0.595953 0.0222,0.258339 0.02667,0.517708 0.02738,0.776854 0.0039,0.196173 -0.0122,0.391792 -0.0254,0.587319 -0.0056,0.09428 -0.05555,0.128466 0.0494,0.158229 0,0 3.424851,-1.705403 3.424851,-1.705403 v 0 c 0.07857,-0.09496 0.08798,-0.121407 0.08335,-0.240837 0.0088,-0.203775 0.01503,-0.407784 0.0075,-0.611728 -0.0098,-0.267007 -0.02117,-0.534093 -0.04386,-0.800367 -0.0186,-0.210479 -0.03995,-0.420349 -0.08509,-0.627121 -0.02178,-0.151624 -0.03988,-0.302982 -0.04091,-0.45648 -0.01032,-0.183528 -0.02405,-0.367022 -0.02196,-0.551 0.0011,-0.231891 0.0052,-0.46378 0.0077,-0.695661 0.007,-0.241276 0.01109,-0.482526 0.0078,-0.723913 -0.0011,-0.214448 2.64e-4,-0.428951 -0.01326,-0.643118 -0.01003,-0.144965 -0.02721,-0.289314 -0.03371,-0.434557 -0.0097,-0.138263 -0.01667,-0.276576 -0.0078,-0.415139 0.0045,-0.145497 0.01209,-0.290822 0.02289,-0.435996 0.0034,-0.189071 0.0032,-0.378169 0.0031,-0.567269 0.0013,-0.316249 0.0097,-0.632085 0.03156,-0.947666 0.01394,-0.288671 0.01627,-0.577962 0.04309,-0.865976 0.02228,-0.392123 0.04067,-0.784265 0.04918,-1.176962 0.02101,-0.676336 0.04277,-1.352989 0.02461,-2.029704 -0.01341,-0.697915 -0.02162,-1.396156 0.0013,-2.093997 0.01482,-0.598627 0.03038,-1.197337 0.01826,-1.796206 -0.0011,-0.670933 -0.0048,-1.341728 0.006,-2.012627 0.01463,-0.656463 0.0473,-1.312307 0.0719,-1.968423 0.0561,-0.948275 0.146164,-1.89388 0.201792,-2.84222 0.0608,-1.016207 0.128191,-2.032522 0.224364,-3.045987 0,0 -3.231414,1.620187 -3.231414,1.620187 z" />
    <path
       style="fill:#000000;stroke-width:0.264583"
       id="path507"
       d="m 53.114122,57.875315 c -0.887458,-0.578959 -1.765475,-1.172623 -2.651181,-1.754534 -1.073957,-0.691976 -2.121506,-1.423379 -3.132375,-2.204493 -0.758614,-0.619847 -1.480238,-1.278477 -2.271879,-1.856811 -0.736479,-0.531498 -1.493798,-1.032031 -2.259566,-1.51996 -0.673166,-0.430757 -1.365969,-0.829019 -2.03236,-1.270436 -0.486732,-0.33732 -0.988851,-0.660744 -1.422236,-1.066652 -0.178112,-0.152665 -0.34463,-0.318659 -0.524991,-0.468691 -0.250542,-0.03917 -0.02884,-0.01199 -0.626748,0.23709 0,0 -2.057879,1.522177 -2.057879,1.522177 v 0 c -0.57504,0.24614 -0.592312,0.03879 -0.561086,0.273527 0.191453,0.15545 0.399341,0.289562 0.597451,0.436126 0.515397,0.332718 1.00113,0.709583 1.516581,1.042635 0.680521,0.435208 1.380643,0.836737 2.074756,1.249685 0.771941,0.480092 1.543289,0.961972 2.296187,1.471586 0.810429,0.566219 1.582018,1.184355 2.364981,1.787494 1.052364,0.772345 2.160434,1.458661 3.268966,2.146768 0.911585,0.574683 1.826385,1.144026 2.745124,1.707171 0,0 2.676255,-1.732682 2.676255,-1.732682 z" />
    <path
       style="fill:#000000;stroke-width:0.264583"
       id="path535"
       d="m 55.090776,57.526967 c 1.076159,-1.054359 2.148938,-2.110915 3.265493,-3.122729 1.167511,-1.034505 2.348852,-2.053574 3.553711,-3.044386 0.75555,-0.608282 1.525252,-1.199202 2.251427,-1.842772 0.479251,-0.455578 0.91634,-0.952101 1.347261,-1.452782 0.303745,-0.373356 0.592569,-0.757886 0.918538,-1.11252 0.164717,-0.189066 0.352904,-0.351666 0.542023,-0.514517 0.129688,-0.10845 0.24779,-0.224787 0.358598,-0.351967 0.132672,-0.134133 0.261292,-0.271233 0.394758,-0.404577 0.100248,-0.108442 0.215374,-0.201033 0.315648,-0.309147 0.07912,-0.110665 0.150117,-0.2198 0.249251,-0.313876 0.03284,-0.0353 0.105407,-0.09447 -0.04683,-0.03196 -0.253497,0.104093 -0.501366,0.221391 -0.752051,0.332087 0,0 -1.846292,0.725088 -1.846292,0.725088 v 0 c -0.29745,0.137837 -0.748154,0.281958 -1.02793,0.524187 -0.07764,0.104963 -0.152119,0.209963 -0.258834,0.288459 -0.108381,0.09889 -0.20619,0.208069 -0.3102,0.311518 -0.131162,0.135239 -0.258006,0.27455 -0.392882,0.406271 -0.121738,0.111463 -0.250476,0.21519 -0.369959,0.329406 -0.179454,0.170569 -0.336897,0.363429 -0.500849,0.548484 -0.302995,0.367051 -0.589758,0.747307 -0.902422,1.106355 -0.425622,0.485465 -0.857247,0.968018 -1.344903,1.392991 -0.722773,0.620141 -1.47533,1.203992 -2.205932,1.814796 -1.174509,0.990957 -2.342094,1.991098 -3.472738,3.032106 -1.080818,1.012759 -2.132161,2.055596 -3.184597,3.097702 0,0 3.419713,-1.408218 3.419713,-1.408218 z" />
    <path
       style="fill:#000000;stroke-width:0.264583"
       id="path562"
       d="m 49.932433,74.395131 c -0.972878,1.246505 -1.920457,2.511954 -2.902267,3.751722 -1.198348,1.506316 -2.414823,2.998055 -3.696079,4.434801 -0.798271,0.860565 -1.635691,1.683199 -2.411671,2.56428 -0.540359,0.616083 -1.018765,1.282224 -1.514084,1.934097 -0.346247,0.457152 -0.728784,0.883666 -1.145632,1.276874 -0.04782,0.0752 -0.276942,0.240286 -0.226793,0.330451 0,0 3.46974,-1.457169 3.46974,-1.457169 v 0 c 0.154737,-0.118226 0.287134,-0.248843 0.419778,-0.39138 0.385217,-0.41289 0.736467,-0.855823 1.077523,-1.305517 0.488873,-0.645629 0.975408,-1.294284 1.513113,-1.900698 0.769927,-0.85811 1.585285,-1.673934 2.346788,-2.539765 1.247724,-1.447707 2.448657,-2.934432 3.637936,-4.430363 1.008126,-1.267708 1.997207,-2.550792 3.028987,-3.799475 0,0 -3.597339,1.532142 -3.597339,1.532142 z" />
    <path
       style="fill:#000000;stroke-width:0.264583"
       id="path590"
       d="m 51.20781,73.892975 c 0.665316,0.812377 1.348795,1.604788 2.081744,2.356972 0.946081,0.922909 1.979168,1.751039 2.995811,2.593957 0.698124,0.567832 1.378294,1.156999 2.061173,1.742897 0.672658,0.577572 1.331187,1.170771 1.979546,1.775391 0.601758,0.571022 1.194231,1.151679 1.790644,1.72823 0.450887,0.422867 0.86835,0.877821 1.279433,1.338752 0.320717,0.367456 0.646554,0.730453 0.96461,1.100219 0.220877,0.278831 0.474564,0.5281 0.725834,0.77892 0.877956,-0.12583 0.219564,0.0059 1.815941,-0.87167 0,0 0.06794,-0.04223 0.06794,-0.04223 v 0 c 1.439892,-0.993029 1.09232,-0.46486 1.497341,-1.164426 -0.250603,-0.2378 -0.501666,-0.476187 -0.721974,-0.743133 -0.324138,-0.367363 -0.652661,-0.730848 -0.975997,-1.098923 -0.419018,-0.46882 -0.854954,-0.922501 -1.315781,-1.350618 -0.599292,-0.578319 -1.204794,-1.150041 -1.807139,-1.725182 -0.648385,-0.609584 -1.307198,-1.20724 -1.977742,-1.792414 -0.678905,-0.603549 -1.391721,-1.166657 -2.103334,-1.730915 -1.01545,-0.823084 -2.044946,-1.63485 -2.977552,-2.552951 -0.714962,-0.743694 -1.394227,-1.521907 -1.986314,-2.368495 0,0 -3.394186,2.025621 -3.394186,2.025621 z" />
    <path
       style="fill:#aa4400;stroke-width:0.264583"
       id="path732"
       d="m 31.631212,94.337125 c 1.446054,0.694339 3.020753,1.046494 4.562944,1.455764 2.294067,0.630516 4.608753,1.180196 6.925854,1.718157 1.372992,0.323551 2.750138,0.628793 4.129223,0.925113 0.848146,-0.104436 0.293465,0.01857 1.525648,-0.663549 0.193307,-0.10701 0.387707,-0.212034 0.581562,-0.31805 0,0 0.06632,-0.04475 0.06632,-0.04475 v 0 c 0.138983,-0.125897 0.278244,-0.251487 0.416949,-0.37769 0.799812,-0.727739 0.964562,-0.423159 0.620604,-0.838944 -1.423837,-0.231648 -2.839768,-0.508325 -4.24707,-0.825651 -2.317547,-0.514453 -4.632368,-1.044307 -6.912621,-1.70852 -1.585965,-0.437568 -3.167708,-0.891863 -4.76051,-1.303729 0,0 -2.908901,1.981845 -2.908901,1.981845 z" />
    <path
       style="fill:#aa4400;stroke-width:0.264583"
       id="path734"
       d="m 48.217047,90.690731 c 1.010576,1.304903 2.304314,2.372066 3.501226,3.502355 1.510895,1.446327 3.02261,2.891835 4.561496,4.308428 1.076505,0.962033 1.420302,0.436604 2.577769,-0.221364 0,0 0.06769,-0.04263 0.06769,-0.04263 v 0 c 0.139787,-0.09985 1.146064,-0.702479 1.238107,-1.085646 0.0461,-0.191905 -0.610246,-0.668761 -0.622096,-0.678775 -1.609958,-1.341578 -3.128018,-2.784695 -4.625319,-4.250116 -1.235366,-1.188294 -2.456442,-2.554502 -4.081658,-3.199744 0,0 -2.617219,1.667492 -2.617219,1.667492 z" />
    <path
       style="fill:#aa4400;stroke-width:0.264583"
       id="path736"
       d="m 61.3163,91.822618 c 1.409388,1.337892 2.687013,2.804904 3.975852,4.257868 1.305589,1.48957 2.648857,2.945696 4.037277,4.358344 0.397102,0.42974 0.47552,0.47404 0.991663,0.178 0.366925,-0.21045 0.726213,-0.43394 1.089319,-0.650911 0,0 -0.06388,0.04816 -0.06388,0.04816 v 0 c 0.740093,-0.390477 1.942227,-0.803571 1.596917,-1.335283 -0.07549,-0.116232 -0.208579,-0.18256 -0.31287,-0.273839 -1.479508,-1.321197 -2.859037,-2.747983 -4.154115,-4.250602 -0.884962,-0.989629 -0.826828,-0.946185 -1.73429,-1.878375 -0.817396,-0.839671 -1.624502,-1.75709 -2.724722,-2.226678 0,0 -2.70115,1.773314 -2.70115,1.773314 z" />
    <path
       style="fill:#aa4400;stroke-width:0.264583"
       id="path738"
       d="m 73.574134,90.888636 c -2.299459,1.498566 -4.528423,3.102155 -6.76511,4.691946 -1.341218,0.954845 -2.701846,1.882027 -4.080854,2.781367 -0.659709,0.430241 -1.359059,0.821179 -1.976715,1.311698 2.448192,-1.315456 2.691032,-1.561992 0.983885,-0.331243 0,0 -0.06293,0.04939 -0.06293,0.04939 v 0 c -1.385531,1.329756 -0.879499,0.738486 2.150427,-0.909219 2.218979,-1.234337 4.236969,-2.800448 6.334839,-4.223147 2.209946,-1.559796 4.418494,-3.121747 6.664688,-4.629208 0,0 -3.248226,1.258416 -3.248226,1.258416 z" />
    <path
       style="fill:#aa4400;stroke-width:0.264583"
       id="path740"
       d="m 61.688381,89.270786 c -1.530665,1.695643 -2.853295,3.570237 -4.189698,5.419399 -1.480418,2.149581 -3.142247,4.15934 -4.768191,6.196745 -0.213823,0.47285 -0.222419,0.30626 0.491937,0.092 0,0 1.485217,-0.60733 1.485217,-0.60733 v 0 c 1.164993,-0.608664 0.696863,-0.26349 1.464469,-0.948651 1.673432,-1.962785 3.105854,-4.118406 4.660612,-6.173274 1.321744,-1.768385 2.663999,-3.523266 3.967601,-5.304255 0,0 -3.111947,1.325406 -3.111947,1.325406 z" />
    <path
       style="fill:#aa4400;stroke-width:0.264583"
       id="path742"
       d="m 51.504569,86.694078 c -0.521018,2.055402 -0.922084,4.141459 -1.404094,6.207556 -0.474067,2.245654 -1.321268,4.387982 -1.923547,6.596147 -0.0051,0.09815 -0.06158,0.207698 -0.0154,0.294457 0.08518,0.160026 0.653505,0.0065 0.835301,-0.08515 0.301164,-0.151794 0.553098,-0.386067 0.829648,-0.579101 0,0 -0.0734,0.03182 -0.0734,0.03182 v 0 c 0.231397,-0.129961 0.45371,-0.277622 0.694193,-0.389882 0.647647,-0.302332 0.700696,-0.104143 1.009465,-0.8166 0.784727,-2.13189 1.223356,-4.383415 1.804169,-6.574432 0.428662,-1.956332 0.935538,-3.96284 0.851514,-5.979121 0,0 -2.607849,1.2943 -2.607849,1.2943 z" />
    <path
       style="fill:#aa4400;stroke-width:0.264583"
       id="path744"
       d="m 41.144504,89.8415 c 0.74835,1.897661 1.510271,3.790167 2.281598,5.678644 0.387575,0.890219 0.739693,1.796894 1.143034,2.680335 0.153511,0.336237 0.253619,0.710628 0.654338,0.844058 0.177639,0.05915 0.374214,0.01341 0.561319,0.02013 0.312121,-0.125285 0.624242,-0.250571 0.936363,-0.375859 0,0 0.06961,-0.03942 0.06961,-0.03942 v 0 c 0.272399,-0.209715 0.544801,-0.419429 0.8172,-0.629143 0.09546,-0.165163 0.235373,-0.311671 0.286393,-0.49549 0.114681,-0.413179 -0.09457,-0.703678 -0.262448,-1.055746 C 47.217017,95.598913 46.77597,94.740734 46.405567,93.8498 45.954293,92.80191 45.886785,92.657905 45.449656,91.590346 44.986373,90.458913 44.594107,89.267225 43.8712,88.267314 c 0,0 -2.726696,1.574178 -2.726696,1.574178 z" />
    <path
       style="fill:#aa4400;stroke-width:0.264583"
       id="path746"
       d="m 36.556992,98.697102 c 1.756127,-2.327064 3.116172,-4.929968 4.627337,-7.418671 1.359779,-2.195573 2.823467,-4.325249 4.326843,-6.424477 -0.258943,0.200845 0.645311,-0.732222 0.392432,-0.646264 -0.07878,0.02678 -0.131077,0.105066 -0.206422,0.14038 -1.556205,0.729425 -1.991389,0.315429 -1.480929,0.753502 0,0 0.07268,-0.03342 0.07268,-0.03342 v 0 c 0.06308,-0.06525 0.277141,-0.218324 0.189238,-0.195747 -1.243232,0.319318 -1.796028,0.476851 -2.373124,1.47044 -1.302285,2.084533 -2.638433,4.148037 -3.901393,6.256973 -1.432345,2.426081 -2.837854,4.868574 -4.335163,7.255346 0,0 2.6885,-1.15806 2.6885,-1.15806 z" />
    <path
       style="fill:#aa4400;stroke-width:0.264583"
       id="path748"
       d="m 45.354017,89.901148 c 0.124169,0.151532 0.233492,0.316558 0.372507,0.454596 0.489622,0.486185 1.04798,0.898462 1.552945,1.36869 1.102847,1.026985 2.111984,2.124551 3.109767,3.252142 2.900709,3.482041 -0.701468,-0.867876 1.908294,2.359829 0.537287,0.664506 0.848845,1.239716 1.760972,1.41288 1.763601,0.334815 0.847836,-0.449633 1.47188,0.156851 0,0 0.06966,-0.03933 0.06966,-0.03933 v 0 c -0.08761,-1.071203 0.01656,0.985771 0.586192,-1.378368 0.204766,-0.849845 -0.369012,-1.391349 -0.828051,-1.98215 -0.280791,-0.361389 -1.706276,-2.051899 -1.957141,-2.350696 -1.020215,-1.147067 -2.035297,-2.260875 -3.215209,-3.248636 -0.444902,-0.372449 -1.220755,-0.975305 -1.757415,-1.269916 -0.206589,-0.113411 -0.434711,-0.182189 -0.652068,-0.273285 0,0 -2.422335,1.537396 -2.422335,1.537396 z" />
    <path
       style="fill:#aa4400;stroke-width:0.264583"
       id="path750"
       d="m 55.881148,87.644337 c 1.558221,1.761405 2.956173,3.647503 4.33746,5.548294 0.879991,1.217652 1.715926,2.466255 2.578359,3.696155 0.256037,0.365133 0.773512,1.130517 1.136922,1.462891 0.146894,0.134348 0.332463,0.219036 0.498692,0.328552 0.900788,-0.01434 0.412465,0.07335 1.433907,-0.399087 0,0 0.0712,-0.03647 0.0712,-0.03647 v 0 c 1.003525,-0.700873 0.674648,-0.286486 1.128583,-1.115891 -0.04063,-0.185753 -0.04698,-0.382489 -0.12188,-0.55726 -0.174453,-0.407061 -0.801878,-1.222737 -1.026086,-1.526294 -0.894546,-1.211138 -1.796839,-2.41659 -2.666749,-3.645799 -0.847767,-1.172853 -1.078068,-1.519748 -1.963759,-2.6372 -0.679373,-0.857152 -1.393814,-1.745422 -2.255181,-2.432122 -0.164811,-0.131389 -0.351748,-0.232333 -0.527621,-0.348498 0,0 -2.623849,1.662729 -2.623849,1.662729 z" />
    <path
       style="fill:#aa4400;stroke-width:0.264583"
       id="path752"
       d="m 71.878123,88.034674 c 1.004271,2.401676 2.390812,4.62435 3.725114,6.85234 0.876159,1.369449 1.644639,2.842001 2.76244,4.04141 0.271825,0.291671 0.552193,0.588142 0.891678,0.797216 0.273399,0.168376 1.296352,0.4499 1.679895,0.56165 0,0 0.06949,-0.0396 0.06949,-0.0396 v 0 c 0.143563,-0.484199 0.41385,-1.269686 0.368241,-1.75967 -0.03607,-0.387573 -0.199046,-0.755428 -0.351443,-1.113603 -0.637678,-1.498705 -1.680784,-2.783916 -2.487033,-4.186491 -1.133504,-1.906939 -0.71733,-1.179716 -1.785485,-3.082139 -0.590693,-1.05205 -1.141026,-2.153507 -1.854213,-3.131841 -0.120208,-0.164897 -0.260316,-0.314328 -0.390472,-0.47149 0,0 -2.628207,1.532268 -2.628207,1.532268 z" />
    <path
       style="fill:#aa4400;stroke-width:0.264583"
       id="path754"
       d="m 76.541237,85.825914 c -3.439133,1.684813 -6.32143,4.133672 -9.162031,6.653276 -0.571804,0.528973 -1.841796,1.673643 -2.408086,2.300806 -0.554893,0.614539 -0.509337,0.430082 -0.477044,0.932151 0,0 0.0743,-0.02965 0.0743,-0.02965 v 0 c 0.511196,-0.299535 1.038974,-0.572416 1.533588,-0.898607 1.498817,-0.988446 2.761517,-2.257004 4.091803,-3.449899 1.403077,-1.229969 2.809451,-2.445782 4.299767,-3.570333 0.34856,-0.263014 0.703146,-0.518067 1.060376,-0.769181 0.248719,-0.174836 1.029724,-0.643194 0.757185,-0.508463 -0.671666,0.332044 -1.305881,0.735002 -1.958822,1.102503 0,0 2.188961,-1.762606 2.188961,-1.762606 z" />
    <path
       style="fill:#aa4400;stroke-width:0.264583"
       id="path766"
       d="m 27.308624,92.253648 c 1.476042,1.947738 2.90457,3.93169 4.39519,5.868398 0.454763,0.443658 1.155449,1.257985 1.832713,1.445159 0.414732,0.114617 0.860028,0.03013 1.290042,0.0452 0,0 0.06867,-0.04105 0.06867,-0.04105 v 0 c 0.134974,-0.353248 0.38432,-0.682152 0.404926,-1.059747 0.03155,-0.578172 -0.668224,-1.57952 -0.909212,-1.986999 -0.878699,-1.165101 -1.746848,-2.336144 -2.599351,-3.520596 -0.436187,-0.606028 -0.934622,-1.34619 -1.44141,-1.912451 -0.138462,-0.15471 -0.304102,-0.282757 -0.456153,-0.424135 0,0 -2.585413,1.586222 -2.585413,1.586222 z" />
    <path
       style="fill:#aa4400;stroke-width:0.264583"
       id="path768"
       d="m 33.640781,87.159165 c 1.806085,2.155023 3.847425,4.105047 5.912554,6.008574 0.956945,0.763195 2.092375,2.116963 3.288403,2.536102 0.724445,0.253879 1.274685,0.131591 1.997453,0.06463 0,0 0.06804,-0.04207 0.06804,-0.04207 v 0 c 0.212948,-0.499612 0.498679,-0.876535 0.218798,-1.457142 -0.148302,-0.307644 -0.433854,-0.529445 -0.678725,-0.767509 -0.716005,-0.6961 -1.553284,-1.26026 -2.267035,-1.958448 -1.447382,-1.335577 -1.209852,-1.090756 -2.600669,-2.476042 -1.158859,-1.154256 -2.250085,-2.394382 -3.573269,-3.368416 0,0 -2.365555,1.46032 -2.365555,1.46032 z" />
    <path
       style="fill:#aa4400;stroke-width:0.264583"
       id="path770"
       d="m 51.761487,83.963527 c -1.913265,1.883022 -3.584913,4.002218 -5.302001,6.062687 -0.531627,0.652052 -1.10613,1.319355 -1.579597,2.021017 -0.128886,0.191005 -0.430059,0.382516 -0.347427,0.597614 0.07179,0.186873 0.398703,0.03653 0.598054,0.0548 0,0 0.07359,-0.03137 0.07359,-0.03137 v 0 c 0.454747,-0.295918 0.934693,-0.556318 1.364242,-0.887756 0.303612,-0.234265 0.558776,-0.525796 0.825211,-0.801608 0.745435,-0.771668 1.188906,-1.324152 1.892427,-2.153801 1.660414,-1.997385 3.31769,-4.000085 5.079146,-5.910019 0,0 -2.603646,1.04844 -2.603646,1.04844 z" />
    <path
       style="fill:#aa4400;stroke-width:0.264583"
       id="path772"
       d="m 51.220176,84.065506 c 0.147789,0.158869 0.280633,0.333084 0.443365,0.476607 0.412269,0.363609 1.667423,1.265883 2.03481,1.518782 1.560465,1.074182 3.180173,2.059787 4.795329,3.048183 1.541735,0.852358 2.993578,1.87715 4.560488,2.685597 0.366279,0.188979 0.725218,0.419759 1.128303,0.505754 0.481666,0.102759 1.603515,-0.02474 2.150853,-0.07349 0,0 0.06764,-0.04272 0.06764,-0.04272 v 0 c 0.108781,-0.360492 0.390123,-1.047745 0.146214,-1.422606 -0.203081,-0.312111 -0.594894,-0.449734 -0.911145,-0.646303 -1.504445,-0.935104 -3.133821,-1.668455 -4.619104,-2.63778 -1.638236,-0.976428 -3.273409,-1.953812 -4.886418,-2.971556 -0.735509,-0.464079 -1.449633,-0.963073 -2.201338,-1.40044 -0.212011,-0.123356 -0.438499,-0.219958 -0.657752,-0.329938 0,0 -2.051243,1.289913 -2.051243,1.289913 z" />
    <path
       style="fill:#aa4400;stroke-width:0.264583"
       id="path774"
       d="m 66.971396,86.953391 c 0.08361,0.224943 0.161282,0.452183 0.250825,0.67483 0.290743,0.722945 0.615,1.432105 0.905854,2.155005 0.598858,1.488426 1.122153,2.999639 1.633963,4.519586 0.472771,1.000119 0.560917,2.360662 1.42298,3.1599 0.319863,0.29655 0.674407,0.330811 1.065718,0.417904 0,0 0.07093,-0.037 0.07093,-0.037 v 0 c 0.331518,-0.471001 0.636432,-0.813004 0.754441,-1.412195 0.241578,-1.22663 -0.429969,-2.416892 -0.701125,-3.567999 -0.827579,-2.492007 -1.591161,-5.041104 -2.849022,-7.357467 0,0 -2.554563,1.447435 -2.554563,1.447435 z" />
    <path
       style="fill:#aa4400;stroke-width:0.264583"
       id="path776"
       d="m 81.890038,92.050178 c -2.778979,0.738299 -5.451345,1.816534 -8.106201,2.90794 -0.909743,0.398473 -2.444856,1.048444 -3.337054,1.524167 -1.07297,0.572114 -2.105917,1.216615 -3.17015,1.804821 0,0 -0.06263,0.04977 -0.06263,0.04977 v 0 c 0.194331,-0.05029 0.385167,-0.116853 0.582996,-0.150884 0.18591,-0.03198 0.385302,0.01397 0.564012,-0.04643 1.087509,-0.367572 2.056329,-1.041027 3.150595,-1.390626 2.637041,-1.092751 5.303012,-2.110833 8.049194,-2.89914 0,0 2.329238,-1.799617 2.329238,-1.799618 z" />
    <path
       style="fill:#ff0000;stroke-width:0.264583"
       id="path778"
       d="m 56.980118,87.05204 c -0.09676,0.158361 -0.201848,0.311923 -0.290277,0.475084 -0.520459,0.9603 -0.943737,1.983044 -1.391457,2.977533 -0.92693,2.058919 -0.395904,0.897866 -1.375232,3.010522 -0.55611,1.268624 -1.264579,2.466083 -1.758681,3.762446 -0.157265,0.412613 -0.368278,0.90337 -0.05365,0.931381 0.237085,0.02111 0.45921,-0.125473 0.688818,-0.188209 0,0 0.07366,-0.0312 0.07366,-0.0312 v 0 c 0.829495,-0.469201 1.106673,-0.512953 1.690293,-1.225992 0.205074,-0.250544 0.364424,-0.535844 0.52822,-0.815128 0.716894,-1.222354 1.230923,-2.544038 1.856594,-3.812225 0.664022,-1.420461 1.338847,-2.835746 1.964418,-4.273749 0.05132,-0.117972 0.603689,-1.409033 0.697002,-1.667433 0.04543,-0.125801 0.0717,-0.25772 0.107551,-0.386577 0,0 -2.737266,1.243549 -2.737266,1.243549 z" />
    <path
       style="fill:#ff0000;stroke-width:0.264583"
       id="path879"
       d="m 54.634299,95.305416 c 0.844603,-2.132203 1.916488,-4.199287 2.498412,-6.428277 0.135348,-0.518435 0.206738,-1.051497 0.310108,-1.577245 -0.02474,-0.532336 0.0078,-1.070451 -0.07425,-1.597006 -0.219874,-1.410896 -1.026594,-3.321804 -1.890223,-4.462254 -0.587256,-0.775488 -1.279895,-1.261078 -2.023581,-1.855234 -0.304467,-0.15281 -0.608936,-0.30562 -0.913405,-0.458431 0,0 -0.0696,0.03945 -0.0696,0.03945 v 0 c -0.05903,0.363302 -0.118062,0.726604 -0.177093,1.089906 0.187042,1.129088 0.193794,1.537195 0.649065,2.64041 0.198787,0.481697 0.487521,0.921633 0.708102,1.39375 0.677661,1.450428 1.178861,2.897495 1.09275,4.525656 -0.07677,0.499946 -0.122896,1.00557 -0.230315,1.499838 -0.488457,2.247585 -1.571738,4.288481 -2.473713,6.384086 0,0 2.593742,-1.194646 2.593742,-1.194646 z" />
    <path
       style="fill:#ff0000;stroke-width:0.264583"
       id="path881"
       d="m 47.126842,93.992024 c -0.512397,-2.72443 -0.182465,-5.478965 0.286724,-8.180665 0.303956,-1.252276 0.492394,-2.523892 0.695306,-3.794067 0.140965,-0.882398 0.278096,-1.722324 0.321207,-2.615279 -0.02013,-0.180163 -0.04029,-0.360323 -0.06043,-0.540486 0,0 -0.07267,0.03345 -0.07267,0.03345 v 0 c -0.219223,0.293156 -0.438443,0.586314 -0.657667,0.87947 -0.166182,0.314685 -0.352954,0.619331 -0.498551,0.944055 -0.383522,0.855374 -0.413364,1.175541 -0.653389,2.083329 -0.344781,1.303993 -0.697116,2.606087 -0.966652,3.928673 -0.251331,1.17357 -0.444786,1.952694 -0.592974,3.148132 -0.216585,1.747223 -0.221493,3.531126 0.03581,5.273365 0,0 2.163284,-1.159981 2.163284,-1.159981 z" />
    <path
       style="fill:#ff0000;stroke-width:0.264583"
       id="path883"
       d="m 41.188171,95.105819 c -0.683524,-1.654945 -1.02449,-3.425893 -1.109271,-5.211804 -0.02588,-0.544897 -0.0021,-1.09102 -0.0032,-1.636528 0.314971,-2.773277 1.587217,-5.175138 2.869864,-7.594054 0.225431,-0.490607 0.603129,-1.218886 0.691608,-1.768962 0.140462,-0.873242 -0.127844,-1.822503 -0.907164,-2.322171 -0.284752,-0.182571 -0.629486,-0.247812 -0.944226,-0.371716 0,0 -0.06858,0.04118 -0.06858,0.04118 v 0 c 0.02835,0.287115 0.04395,0.575778 0.08505,0.861348 0.119457,0.829905 0.419606,1.649635 0.348253,2.500588 -0.05744,0.68503 -0.255889,1.015582 -0.518345,1.651222 -0.531321,1.035241 -1.114232,2.058906 -1.575972,3.127801 -0.632159,1.463392 -1.058786,3.00246 -1.365793,4.564359 -0.109524,0.610285 -0.268414,1.213741 -0.32857,1.83085 -0.13553,1.390327 0.05269,3.795157 0.775475,5.054455 0.07268,0.126635 0.195599,0.216842 0.293397,0.325263 0,0 1.757495,-1.051836 1.757495,-1.051836 z" />
    <path
       style="fill:#ff0000;stroke-width:0.264583"
       id="path885"
       d="m 36.504636,93.656958 c -0.07677,-0.134445 -0.174479,-0.258929 -0.230298,-0.403333 -0.571731,-1.479053 -0.480203,-3.386556 -0.168172,-4.910286 0.09252,-0.451781 0.250277,-0.887703 0.375417,-1.331558 0.357092,-0.845243 0.46015,-1.154723 0.869728,-1.913464 0.287509,-0.532606 0.442346,-0.358179 0.184846,-0.556492 0,0 -0.07445,0.02926 -0.07445,0.02926 v 0 c -0.354126,0.193408 -0.736375,0.342453 -1.062379,0.580221 -0.86192,0.628634 -1.236207,1.695344 -1.578049,2.648876 -0.132636,0.455652 -0.288653,0.905137 -0.397904,1.366951 -0.354476,1.49841 -0.68417,3.732019 -0.06968,5.211358 0.06785,0.163343 0.212514,0.282805 0.318768,0.424206 0,0 1.832173,-1.145744 1.832173,-1.145744 z" />
    <path
       style="fill:#ff0000;stroke-width:0.264583"
       id="path887"
       d="m 52.695855,92.737547 c -0.104579,-2.000541 -0.109087,-4.001685 0.109747,-5.99681 0.06571,-0.599117 0.16755,-1.193718 0.251328,-1.790578 0.350213,-1.410481 0.606406,-3.811228 1.597202,-4.96347 0.491897,-0.572047 0.426035,-0.50836 0.774329,-0.2374 0,0 0.06416,-0.04778 0.06416,-0.04778 v 0 c -0.52711,0.128791 -1.078134,0.183327 -1.581329,0.386374 -1.917901,0.773898 -2.425653,4.135628 -2.858262,5.842984 -0.335124,1.822614 -0.587021,3.487425 -0.67187,5.342538 -0.03163,0.69151 -0.06417,1.456592 0.04797,2.153901 0.02535,0.157594 0.08819,0.306817 0.132278,0.460225 0,0 2.134444,-1.149983 2.134444,-1.149983 z" />
    <path
       style="fill:#ff0000;stroke-width:0.264583"
       id="path889"
       d="m 65.220108,91.664469 c -0.91622,-2.457281 -0.99074,-5.08313 -1.010253,-7.672975 0.06326,-1.738686 0.114615,-3.477067 0.357161,-5.202071 0.201853,-1.435595 0.241469,-0.656077 0.122812,-1.654164 0,0 -0.07307,0.03257 -0.07307,0.03257 v 0 c -0.326562,0.349552 -0.718108,0.64815 -0.979688,1.048655 -0.255842,0.391724 -0.401897,0.847656 -0.548929,1.291826 -0.584244,1.764927 -0.7987,3.644892 -0.859313,5.492599 -0.0163,2.287643 -0.141235,5.136896 0.756414,7.296745 0.07298,0.175593 0.182457,0.333684 0.273685,0.500528 0,0 1.961179,-1.133718 1.961179,-1.133718 z" />
    <path
       style="fill:#ff0000;stroke-width:0.264583"
       id="path891"
       d="m 68.898724,92.446818 c 1.15256,-1.541079 2.062181,-3.302307 2.458389,-5.198994 0.118978,-0.56956 0.147926,-1.154271 0.221888,-1.731407 0.03093,-3.304042 -1.394137,-6.280136 -2.972808,-9.095636 -0.71769,-0.518258 -0.355989,-0.407184 -1.027565,-0.48227 0,0 -0.07247,0.03387 -0.07247,0.03387 v 0 c -0.907915,0.872535 -0.58651,0.346057 -0.938395,1.594911 0.117615,0.362686 0.222202,0.729856 0.352843,1.088054 0.690467,1.893171 0.396094,0.840529 1.176964,2.866144 0.64325,1.668627 1.14272,3.362902 1.10421,5.171895 -0.05692,0.554278 -0.07642,1.113684 -0.17076,1.662832 -0.31329,1.823686 -1.08867,3.468751 -2.154282,4.965359 0,0 2.021988,-0.87476 2.021988,-0.87476 z" />
    <path
       style="fill:#ff0000;stroke-width:0.264583"
       id="path893"
       d="m 73.768695,90.268733 c 0.235561,-2.570469 0.943803,-5.058759 1.600885,-7.544972 0.733198,-2.71767 1.019276,-5.56079 0.389332,-8.331414 -0.08981,-0.394986 -0.238151,-0.77434 -0.357227,-1.16151 -0.511934,-1.03323 -0.810522,-1.07478 -1.862185,-1.220507 0,0 -0.06891,0.04063 -0.06891,0.04063 v 0 c -0.268809,0.801357 -0.517448,1.507807 -0.262697,2.368428 0.12986,0.617509 0.436894,2.0295 0.513353,2.610858 0.299193,2.274959 0.01278,4.534281 -0.554741,6.746354 -0.412216,1.613104 -0.871498,3.216151 -1.24215,4.839533 -0.117399,0.514184 -0.35945,1.638856 -0.417672,2.215788 -0.02061,0.204126 -0.0031,0.410313 -0.0047,0.615468 0,0 2.266664,-1.178658 2.266664,-1.178658 z" />
    <path
       style="fill:#ff0000;stroke-width:0.264583"
       id="path895"
       d="m 64.080731,91.84301 c -1.169993,-1.484808 -1.718916,-3.367255 -2.018597,-5.209466 -0.09926,-0.610209 -0.13477,-1.22909 -0.202157,-1.843635 -0.04423,-1.629141 0.03167,-3.050575 0.653431,-4.569889 0.254926,-0.622932 0.550505,-1.190199 1.070594,-1.632585 0.188314,-0.160181 0.427077,-0.249177 0.640617,-0.373764 0,0 0.06225,-0.05025 0.06225,-0.05025 v 0 c -0.956177,0.516694 -1.299218,0.610018 -2.082207,1.440476 -1.082373,1.147993 -1.706838,2.702436 -1.943044,4.249891 -0.09141,0.598866 -0.06355,1.209934 -0.09532,1.814904 0.07285,1.826308 0.141116,3.470532 0.716391,5.223685 0.194384,0.592383 0.480301,1.306832 0.88817,1.808352 0.114919,0.141309 0.278376,0.234958 0.417565,0.352439 0,0 1.892311,-1.210159 1.892311,-1.210159 z" />
    <path
       style="fill:#ff0000;stroke-width:0.264583"
       id="path897"
       d="m 50.81879,91.025878 c 0.612939,-1.639011 0.894577,-3.378718 1.243867,-5.086273 0.412213,-2.015164 0.408297,-1.973379 0.841304,-3.992136 0.33814,-1.597835 0.776107,-3.172008 1.125492,-4.767178 0.113837,-0.519732 0.340625,-1.176049 0.131633,-1.728028 -0.06086,-0.160753 -0.223298,-0.261385 -0.334944,-0.392076 0,0 -0.07193,0.03501 -0.07193,0.03501 v 0 c -0.494379,0.727342 -0.690997,0.925845 -1.006626,1.767194 -0.131728,0.351136 -0.210854,0.719831 -0.312311,1.080876 -0.451157,1.605473 -0.850443,3.224376 -1.266198,4.839216 -0.482413,1.959327 -0.904034,3.929602 -1.367669,5.893202 -0.205359,0.869738 -0.439065,1.743585 -0.620559,2.620108 -0.03831,0.185025 -0.06287,0.372634 -0.09431,0.55895 0,0 1.732251,-0.828868 1.732251,-0.828868 z" />
    <path
       style="fill:#ff0000;stroke-width:0.264583"
       id="path899"
       d="m 44.473103,92.275241 c -1.726666,-2.226945 -1.605182,-4.849294 -1.502534,-7.525412 0.501422,-3.311527 2.270384,-6.186421 3.473248,-9.256286 0.466784,-1.372965 0.454922,-2.472589 -0.285236,-3.737636 -0.172707,-0.295185 -0.35396,-0.588928 -0.575972,-0.849064 -0.224165,-0.262657 -0.502989,-0.473239 -0.754483,-0.709856 -0.316217,-0.149887 -0.632431,-0.299773 -0.948648,-0.449659 0,0 -0.06921,0.04012 -0.06921,0.04012 v 0 c -0.01913,0.344765 -0.03828,0.689533 -0.05742,1.034301 0.0943,0.326007 0.161977,0.660927 0.282913,0.978022 0.119391,0.313044 0.302276,0.598456 0.435568,0.905841 0.497316,1.146868 0.662421,2.284698 0.408842,3.521199 -0.09609,0.339074 -0.175959,0.683167 -0.288269,1.017217 -0.26031,0.774263 -0.717431,1.800802 -1.019463,2.538291 -0.744993,1.819092 -1.435095,3.661431 -1.857523,5.587502 -0.151503,0.735142 -0.37446,1.459116 -0.45451,2.205427 -0.158869,1.48115 0.08192,4.205065 1.119278,5.423979 0.125883,0.147913 0.312645,0.230553 0.468966,0.345829 0,0 1.624457,-1.069816 1.624457,-1.069816 z" />
    <path
       style="fill:#ff0000;stroke-width:0.264583"
       id="path901"
       d="m 36.898662,93.646809 c -0.291926,-0.271232 -0.515353,-0.44537 -0.712883,-0.830643 -1.15624,-2.255179 -1.15574,-5.222799 -1.272294,-7.682416 -0.06171,-2.438328 0.02376,-4.877424 0.154382,-7.311995 0.06028,-1.123445 0.109524,-2.391693 0.346162,-3.503436 0.110561,-0.519427 0.295592,-1.020167 0.443389,-1.530252 0.200258,-0.470945 0.377571,-0.952322 0.600773,-1.412838 0.55575,-1.146646 0.845368,-1.486593 1.54614,-2.551477 0.465281,-0.70703 0.965272,-1.363017 1.221537,-2.182918 0.09323,-0.298276 0.09459,-0.617813 0.14189,-0.926719 0,0 -0.07288,0.03299 -0.07288,0.03299 v 0 c -1.843281,2.473722 -3.83754,4.904301 -5.011931,7.787238 -0.156053,0.522512 -0.343622,1.036627 -0.468156,1.567534 -0.839264,3.5779 -0.531339,7.309528 -0.678841,10.945717 0.04771,1.872488 0.0266,3.049935 0.263064,4.888712 0.147918,1.150263 0.322519,2.844083 1.359694,3.615267 0.14256,0.106 0.324376,0.144973 0.486563,0.217461 0,0 1.65339,-1.122228 1.65339,-1.122228 z" />
    <path
       style="fill:#ff0000;stroke-width:0.264583"
       id="path903"
       d="m 46.054885,86.769259 c -0.07612,-0.28085 -0.174593,-0.556577 -0.22837,-0.842544 -0.754591,-4.012669 -0.303921,-8.105617 0.08385,-12.128061 0.656754,-5.192702 2.150689,-10.233324 4.081184,-15.085179 0.745702,-1.810792 0.302356,-0.976246 1.300615,-2.519045 0,0 -0.07325,0.03216 -0.07325,0.03216 v 0 c -1.061508,1.626888 -0.507598,0.738119 -1.642798,2.678012 -0.709057,1.581735 -1.101079,2.380435 -1.699728,4.05748 -1.309696,3.66897 -2.164985,7.489132 -2.915261,11.304471 -0.178811,1.057233 -0.400397,2.108116 -0.536438,3.171696 -0.122692,0.959255 -0.184354,1.925817 -0.239064,2.891337 -0.137613,2.428563 -0.112975,4.874088 0.366593,7.266763 0,0 1.502672,-0.827085 1.502672,-0.827085 z" />
    <path
       style="fill:#ff0000;stroke-width:0.264583"
       id="path905"
       d="m 61.993787,83.991999 c 0.0094,-0.252912 0.0308,-0.505666 0.02812,-0.758737 -0.01101,-1.039863 -0.08511,-2.078186 -0.111225,-3.117779 -0.06459,-2.571342 -0.137353,-5.139772 -0.235852,-7.710292 -0.299342,-2.637303 -0.410676,-5.290497 -0.624684,-7.93457 -0.06242,-0.771147 -0.156276,-1.5395 -0.221261,-2.310435 -0.268785,-3.188676 0.02207,-1.027533 -0.44229,-3.940561 -0.325216,-1.823299 -0.921912,-3.538201 -2.014834,-5.042463 -0.211865,-0.291606 -0.409427,-0.601205 -0.675415,-0.844461 -0.265787,-0.243072 -0.600451,-0.397954 -0.900679,-0.596931 0,0 -0.0689,0.04066 -0.0689,0.04066 v 0 c 0.07807,0.331525 0.08733,0.687276 0.234199,0.994571 0.154027,0.322271 0.441002,0.562303 0.648763,0.85285 1.052629,1.472055 1.846713,3.099933 2.272739,4.865174 0.141584,0.594606 0.770202,3.194836 0.853795,3.719529 0.121232,0.760955 0.177144,1.531117 0.242842,2.298864 0.234265,2.737561 0.285674,5.486334 0.04974,8.226951 -0.09613,2.664738 -0.245099,5.326967 -0.316161,7.992486 -0.01683,0.631274 -0.06398,2.429994 -0.02611,3.193711 0.01169,0.235852 0.05875,0.468619 0.08812,0.702929 0,0 1.219104,-0.631497 1.219104,-0.631497 z" />
    <path
       style="fill:#ff0000;stroke-width:0.264583"
       id="path907"
       d="m 68.630389,87.068077 c 0.03494,-0.209881 0.08041,-0.41828 0.104825,-0.629645 0.07709,-0.667247 0.210945,-2.56305 0.258511,-3.076318 0.231916,-2.502429 0.551138,-4.997011 0.84458,-7.492667 0.608877,-4.811935 -0.08841,-9.625018 -0.620874,-14.405469 -0.14568,-1.616192 -0.34068,-3.262091 -0.09429,-4.881722 0.06639,-0.436419 0.505754,-2.053941 0.636014,-2.545553 0,0 -0.07261,0.03357 -0.07261,0.03357 v 0 c -0.232696,0.448961 -0.511596,0.876848 -0.698085,1.346888 -0.182681,0.460444 -0.289446,0.94819 -0.403717,1.43019 -0.127473,0.537673 -0.263808,1.076751 -0.320934,1.626367 -0.116893,1.124603 0.03495,2.309503 0.125759,3.424952 0.289375,2.137754 0.670253,4.286864 0.808392,6.44144 0.170566,2.660377 -0.0073,5.325271 -0.259233,7.97366 -0.384789,2.894478 -0.297559,2.461758 -0.793999,5.316083 -0.311727,1.79229 -0.809869,3.761194 -0.937728,5.574844 -0.01331,0.188733 0.01826,0.37796 0.0274,0.566939 0,0 1.396,-0.703564 1.396,-0.703564 z" />
    <path
       style="fill:#ff0000;stroke-width:0.264583"
       id="path909"
       d="m 74.996396,89.992405 c 0.0954,-2.347359 0.552469,-4.660206 0.637802,-7.010752 0.02723,-0.750167 0.0079,-1.501301 0.01183,-2.25195 -0.190185,-3.384989 -0.782952,-6.72615 -1.20659,-10.084689 -0.172741,-1.369473 -0.323559,-2.935565 -0.463365,-4.316098 -0.0046,-0.81924 -0.05292,-2.509835 0.08164,-3.367881 0.07434,-0.473993 0.246936,-0.927253 0.370404,-1.390883 0,0 -0.0723,0.03425 -0.0723,0.03425 v 0 c -0.545761,1.677172 -1.17593,3.332921 -1.164365,5.128963 -0.0028,0.7166 -0.04771,1.434267 -0.0085,2.149795 0.07706,1.405377 0.414663,3.317854 0.617564,4.697016 0.37474,2.54721 0.767185,5.102304 0.792683,7.683338 -0.02585,0.758968 -0.03168,1.518881 -0.07752,2.276904 -0.144389,2.387941 -0.530193,4.749649 -0.837023,7.118607 0,0 1.317705,-0.666621 1.317705,-0.666621 z" />
    <path
       style="fill:#ff0000;stroke-width:0.264583"
       id="path911"
       d="m 78.366857,92.256318 c 0.325252,-1.827414 0.172847,-3.702958 0.08388,-5.54332 -0.273299,-5.65359 -7.94e-4,0.386469 -0.263986,-5.589116 -0.174244,-3.770779 -0.307115,-7.549417 0.02289,-11.315714 0.163076,-1.861145 0.333279,-2.861743 0.597342,-4.676351 0.427648,-2.550668 0.114342,-1.313355 0.928113,-3.714909 0,0 -0.0725,0.03381 -0.0725,0.03381 v 0 c -0.993439,2.563971 -0.473541,1.223079 -1.559872,4.022608 -0.194906,0.776674 -0.426247,1.545101 -0.584719,2.330019 -0.35338,1.750309 -0.522581,3.526377 -0.663694,5.303417 -0.232611,2.929295 -0.294304,5.865188 -0.194826,8.802391 0.06103,2.057874 0.11934,3.606086 0.133099,5.652825 0.01204,1.79033 -0.153223,3.62907 0.195998,5.398011 0,0 1.378272,-0.703675 1.378272,-0.703675 z" />
    <path
       style="fill:#ff0000;stroke-width:0.264583"
       id="path913"
       d="m 66.952589,89.85189 c 0.02614,-0.288832 0.07091,-0.576582 0.07842,-0.866497 0.01109,-0.427828 -0.01516,-0.855808 -0.02276,-1.283713 0.007,-0.555236 0.0016,-1.110777 0.02106,-1.665711 0.07617,-2.15646 0.318014,-4.290473 0.575339,-6.43101 0.112197,-0.786823 0.227664,-1.573186 0.33659,-2.36047 0.195776,-1.41502 0.466,-3.329807 0.562449,-4.756885 0.171008,-2.530261 0.105669,-5.056733 -0.01714,-7.585718 -0.122733,-2.80099 -0.843984,-5.502807 -1.499119,-8.210463 0,0 -0.07088,0.03709 -0.07088,0.03709 v 0 c -0.0058,0.657212 -0.03242,1.314577 -0.01728,1.97164 0.05178,2.246109 0.386546,4.460875 0.645104,6.688746 0.134141,1.956811 0.270651,3.05148 0.15249,5.028086 -0.199228,3.332753 -1.081831,6.582995 -1.508061,9.885439 -0.331071,2.185514 -0.647383,4.353055 -0.794883,6.559934 -0.03097,0.463404 -0.145766,2.431746 -0.117273,3.023322 0.01251,0.259803 0.08388,0.5134 0.125817,0.770102 0,0 1.550106,-0.803892 1.550106,-0.803892 z" />
    <path
       style="fill:#ff0000;stroke-width:0.264583"
       id="path915"
       d="m 63.289356,84.86337 c 0.0486,-3.833968 -0.295163,-7.664061 -0.558569,-11.486438 -0.183256,-3.838795 -0.552601,-7.671864 -0.463669,-11.519366 0.01466,-0.63378 0.05976,-1.266486 0.08964,-1.899732 0.169823,-1.512173 0.231024,-3.027569 0.390747,-4.540334 0,0 -0.07191,0.03507 -0.07191,0.03507 v 0 c -0.392063,1.611828 -0.884833,3.205514 -1.038448,4.865111 -0.179377,1.737923 -0.27967,2.316649 -0.29107,4.098589 -0.02014,3.145419 0.388358,6.276009 0.501184,9.415891 0.08688,3.911568 0.167957,7.826028 0.04354,11.737744 0,0 1.398545,-0.70653 1.398545,-0.70653 z" />
    <path
       style="fill:#ff0000;stroke-width:0.264583"
       id="path917"
       d="m 55.796409,82.56095 c 0.01363,-2.95956 0.309288,-5.903082 0.512318,-8.852614 0.162007,-2.390235 0.548357,-4.797473 0.417846,-7.199598 -0.02458,-0.452607 -0.08822,-0.902245 -0.132323,-1.353368 -0.03888,-1.275456 -0.517967,-2.399792 -1.026411,-3.541379 0,0 -0.07069,0.03746 -0.07069,0.03746 v 0 c -0.07998,1.342245 -0.166651,2.685405 0.118779,4.014317 0.129249,1.354907 0.24802,2.706867 0.202456,4.070339 -0.03378,1.010888 -0.150238,1.914038 -0.254314,2.91864 -0.05179,0.49988 -0.101862,0.999935 -0.152792,1.499902 -0.378603,3.0114 -0.757335,6.032645 -0.910132,9.064029 0,0 1.295259,-0.65773 1.295259,-0.65773 z" />
    <path
       style="fill:#ff0000;stroke-width:0.264583"
       id="path919"
       d="m 50.116983,85.623515 c 0.009,-0.244567 0.0273,-0.488968 0.02717,-0.733705 -5.29e-4,-1.141926 -0.05742,-1.81523 -0.115998,-2.997232 -0.02217,-0.447212 -0.166056,-3.567184 -0.196716,-3.968975 -0.05118,-0.670771 -0.135784,-1.338574 -0.203676,-2.007862 -0.551918,-3.67461 -1.268553,-7.31843 -1.590225,-11.02366 -0.05746,-1.692659 -0.07294,-1.23648 -0.01101,-2.881887 0.01611,-0.428464 0.07861,-0.856427 0.06123,-1.28484 -0.01527,-0.376534 -0.10585,-0.746218 -0.158774,-1.119328 0,0 -0.07195,0.03498 -0.07195,0.03498 v 0 c -0.220139,0.509013 -0.500806,0.995928 -0.660416,1.527042 -0.410464,1.365856 -0.211609,2.863787 -0.178605,4.256194 0.165529,1.497346 0.168207,1.756455 0.444784,3.268218 0.462801,2.529631 1.145169,5.017336 1.509463,7.566109 0.183124,1.63063 0.310214,2.378033 0.320755,4.027048 0.01267,1.981944 -0.327443,3.939638 -0.316058,5.918764 0,0 1.14001,-0.580864 1.14001,-0.580864 z" />
    <path
       style="fill:#ff0000;stroke-width:0.264583"
       id="path921"
       d="m 41.418795,81.142371 c -0.543681,-3.021238 -0.60707,-6.10702 -0.629406,-9.168924 -0.008,-2.136783 0.313123,-4.250812 0.564313,-6.366618 0.05261,-0.443143 0.126675,-0.884442 0.154311,-1.329839 0.02687,-0.433022 0.006,-0.86769 0.009,-1.301535 -0.08796,-2.669895 0.106363,-0.01056 -0.373414,-2.458934 -0.07357,-0.375428 -0.07915,-0.761032 -0.118729,-1.141548 0,0 -0.0709,0.03706 -0.0709,0.03706 v 0 c 0.03952,0.380399 0.129344,0.758904 0.118549,1.141198 -0.02627,0.929966 -0.37942,1.834859 -0.268589,2.778054 -0.474019,3.038501 -1.132432,6.065506 -1.029464,9.16124 0.07005,3.063044 0.240382,6.126533 0.680646,9.16147 0,0 0.963718,-0.511619 0.963718,-0.511619 z" />
    <path
       style="fill:#ff0000;stroke-width:0.264583"
       id="path923"
       d="m 37.81144,82.217357 c -0.459007,-2.663391 -0.34072,-5.366552 -0.18019,-8.049824 0.179097,-2.977197 0.84377,-5.890069 1.250112,-8.836977 0.184102,-1.707459 0.07637,-3.065433 -1.171202,-4.354896 -0.205661,-0.212566 -0.449596,-0.384429 -0.674394,-0.576644 -0.252402,-0.136101 -0.504806,-0.272203 -0.757211,-0.408305 0,0 -0.06869,0.041 -0.06869,0.041 v 0 c 0.05587,0.254148 0.111736,0.508294 0.167606,0.762442 0.136567,0.242464 0.264927,0.489739 0.409699,0.727395 0.387885,0.63676 0.590762,0.781643 0.830675,1.492674 0.310627,0.920596 0.270288,1.903642 0.17285,2.853324 -0.405828,2.930017 -0.977842,5.839884 -1.153083,8.798809 -0.16282,2.716437 -0.3545,5.468197 -0.005,8.177255 0,0 1.178816,-0.626253 1.178816,-0.626253 z" />
    <path
       style="fill:#ff0000;stroke-width:0.264583"
       id="path925"
       d="m 38.642708,89.134936 c -0.701911,-3.443637 -1.38579,-6.887652 -1.921288,-10.362113 -0.217398,-2.036802 -0.713484,-4.060415 -0.774356,-6.114338 -0.03414,-1.151879 0.05468,-1.548791 0.189053,-2.680761 0.148579,-1.154094 0.527354,-2.252131 0.877429,-3.354721 0.09783,-0.308131 0.220501,-0.60987 0.288883,-0.925843 0.379,-1.751227 -0.308679,0.272658 0.345054,-1.469774 0,0 -0.07282,0.03311 -0.07282,0.03311 v 0 c -0.672762,1.186127 -0.282168,0.55871 -1.200341,1.864167 -0.824,1.355907 -1.279429,2.89815 -1.464699,4.464235 -0.08123,1.353566 -0.152244,2.719131 -0.06479,4.075118 0.102767,1.593347 0.472318,3.152804 0.708094,4.72758 0.29905,1.824514 0.378854,2.239396 0.634642,4.102656 0.250349,1.823635 0.443185,3.660494 0.75782,5.475036 0.05644,0.325472 0.137798,0.646128 0.206698,0.969192 0,0 1.490623,-0.803547 1.490623,-0.803547 z" />
    <path
       style="fill:#ff0000;stroke-width:0.264583"
       id="path927"
       d="m 36.608736,87.277413 c -0.522528,-1.145773 -1.039069,-2.28246 -1.32684,-3.516009 -0.317659,-1.361654 -0.371414,-2.190633 -0.534911,-3.594586 -0.150947,-1.582143 -0.28158,-2.467653 -0.247883,-4.063344 0.0141,-0.667404 0.11534,-1.330632 0.140775,-1.9977 0.106717,-2.798707 -0.206912,-0.631888 0.305271,-3.294313 0,0 -0.07196,0.03496 -0.07196,0.03496 v 0 c -0.101476,0.528002 -0.188037,1.059093 -0.30443,1.58401 -0.144957,0.653725 -0.373716,1.289558 -0.479369,1.950773 -0.105847,0.662421 -0.09748,1.338125 -0.152977,2.006648 -0.348308,4.195865 -0.05465,0.149344 -0.346025,4.379756 0.09889,2.332701 0.171776,5.35859 1.784062,7.231996 0,0 1.234286,-0.72219 1.234286,-0.72219 z" />
    <path
       style="fill:#000000;stroke-width:0.264583"
       id="path1180"
       d="m 62.310054,32.331265 c 0.609269,-1.834356 1.164447,-3.686066 1.684713,-5.547447 0.343006,-1.206583 0.61957,-2.430384 0.941121,-3.642547 0.138951,-0.530936 0.290523,-1.058339 0.442274,-1.585702 0.06511,-0.218372 0.114901,-0.440729 0.194739,-0.654392 0.0356,-0.07737 0.07958,-0.150107 0.130852,-0.217909 0.25376,-0.161777 -0.606734,0.173177 -0.715285,0.42939 -0.05689,0.058 -0.116591,0.116185 -0.186944,0.157543 -0.01198,0.0061 -0.04745,0.02518 -0.03595,0.01824 0.75361,-0.455314 0.729449,-0.392586 0.431401,-0.284884 -0.192281,0.06948 -0.387445,0.121094 -0.58564,0.170581 -0.94199,0.177396 -1.904854,0.165813 -2.854367,0.06899 -0.60774,-0.120445 -1.285512,-0.225585 -1.778005,-0.634969 -0.114554,-0.153654 0.02096,-0.245029 -0.30248,-0.116796 -1.004496,0.302197 -2.042744,0.05445 -3.025018,-0.210206 -0.745802,-0.228548 -1.443096,-0.58284 -2.087081,-1.019283 -0.378769,-0.252601 -0.427032,0.04523 -0.962226,0.353519 -0.181618,0.104617 0.391097,-0.175711 0.53838,-0.324834 0.07385,-0.07477 -0.202095,0.05777 -0.303142,0.08666 -1.452213,0.282006 -2.831115,-0.234701 -4.139702,-0.811014 -1.073819,-0.519139 -2.064213,-1.191016 -2.981322,-1.950095 -0.430559,-0.376028 -1.040313,-0.134752 -1.548408,-0.0873 -0.252034,0.02354 -0.505111,0.03411 -0.757669,0.05117 -1.177914,0.02367 -2.381081,-0.105738 -3.444753,-0.651997 -0.556903,-0.286003 -0.749708,-0.491029 -1.212427,-0.882158 -0.479356,-0.459206 -0.89077,-0.979969 -1.139153,-1.597167 -0.156747,-0.234239 -0.506526,-0.23311 -0.755528,-0.294654 -0.453488,-0.112085 -0.342686,-0.0874 -0.804638,-0.275136 -0.742206,-0.377674 -1.330229,-0.972067 -1.689547,-1.721178 -0.0901,-0.302144 -0.06974,-0.457886 -0.29033,-0.693047 C 34.523816,9.8692768 34.547293,9.1561302 34.760094,8.4227076 34.960387,8.0595064 34.972581,7.9696891 35.276117,7.683352 35.3776,7.587617 35.575926,7.5644943 35.608354,7.4288009 c 0.02919,-0.1221327 -0.292801,0.077282 -0.319212,0.2000451 -0.02257,0.1048549 0.198697,-0.081381 0.300768,-0.1143177 0.0825,-0.026622 0.168039,-0.042713 0.25206,-0.064069 0.46876,-0.074937 0.659752,-0.1812803 1.103538,-0.5806943 0.03195,-0.028752 0.151143,-0.8114863 0.162163,-0.8683082 0.117446,-0.5086464 0.32876,-1.0135127 0.755422,-1.3414817 0.09691,-0.074497 0.248275,-0.2911001 0.314603,-0.1884225 0.06713,0.103917 -0.184081,0.1653307 -0.276122,0.2479961 0.720611,-0.1860193 1.445713,0.03065 2.168599,0.036834 1.162175,-0.2390333 0.750779,-0.5978665 1.132494,-1.2291126 0.05759,-0.051967 0.242226,-0.1904736 0.172783,-0.1559007 -0.135858,0.067638 -0.385553,0.1055362 -0.375827,0.2569874 0.0085,0.1324922 0.255156,-0.075751 0.386032,-0.098077 0.53566,-0.091376 1.075066,-0.047996 1.612998,-0.014703 0.764421,0.02748 1.525831,0.228138 2.292347,0.173482 0.625737,-0.2131124 1.254236,-0.2038528 1.906408,-0.1557312 0.903991,0.075068 1.811636,0.2607636 2.718744,0.1442824 0.646248,-0.2327998 1.28128,-0.4272246 1.96305,-0.5350857 1.263642,-0.190378 2.537124,-0.077484 3.795572,0.088401 0.68276,0.1465974 1.351029,0.2158187 2.045423,0.1565267 1.162481,-0.1928821 2.25353,0.2092915 3.33494,0.5829781 0.66039,0.2184062 1.32892,0.5494822 2.043462,0.5197928 0.309184,-0.012848 0.477057,-0.081722 0.771993,-0.1678028 1.181023,-0.4517863 2.41522,-0.5278373 3.664355,-0.4834347 0.728231,0.00488 1.47578,0.21635 2.198833,0.043782 0.289208,-0.069024 0.47198,-0.1733129 0.736251,-0.2998621 0.760502,-0.483662 1.58251,-0.3719075 2.423908,-0.2301967 0.990759,0.2444752 1.861966,-0.087642 2.768844,-0.4523317 1.033851,-0.4980695 2.131361,-0.4714134 3.246562,-0.4206221 1.141235,0.111629 2.257554,-0.1865893 3.391212,-0.2355901 1.082889,0.0098 2.116658,0.3549222 3.160045,0.6015416 0.960332,0.1993424 1.940828,0.1017794 2.908099,0.2377345 0.949532,0.2077604 1.80594,0.6940897 2.670585,1.1206932 0.35087,0.2040705 0.729435,0.3398788 1.102884,0.491893 0.626542,0.2928887 1.262314,0.565554 1.90604,0.8183099 0.304035,0.1634175 0.640173,0.154517 0.965293,0.2123964 0.590809,0.3276542 1.005289,0.9217493 1.422603,1.4391656 0.404173,0.5300056 0.624986,0.6060286 0.210807,1.1625458 -0.424413,0.8715671 -0.413126,1.8958203 -0.447304,2.8454533 -0.02882,1.047881 0.06816,1.605621 -0.81293,2.265168 -0.687861,0.444598 -0.885402,1.189563 -1.045496,1.945418 -0.174577,0.774681 -0.142925,1.736441 -0.754285,2.331982 -0.101753,0.09912 -0.227015,0.170816 -0.340521,0.256225 0.08522,-0.05763 0.353142,-0.140042 0.255651,-0.17289 -0.122036,-0.04112 -0.23971,0.09434 -0.361093,0.137363 -0.589409,0.208901 -1.006705,0.429791 -1.516888,0.872237 -0.09846,0.08539 -0.137191,0.221634 -0.205787,0.332451 -0.370017,0.744785 -0.365358,1.610381 -0.856922,2.293032 -0.101349,0.06692 -0.184777,0.223695 -0.304049,0.200775 -0.109233,-0.02099 0.355153,-0.151745 0.259937,-0.209251 -0.122891,-0.07422 -0.275179,0.08255 -0.414874,0.115672 -0.388726,0.09216 -0.76481,0.149188 -1.144985,0.276157 -0.305776,0.183635 -0.630012,0.339552 -0.917328,0.550904 -0.419085,0.308279 -0.555906,1.250683 -0.696733,1.727178 0.280419,-0.05495 -0.462341,0.529905 -0.3273,0.416247 0.117604,-0.09898 0.367776,-0.144234 0.352597,-0.297195 -0.01257,-0.126605 -0.254704,0.01268 -0.381659,0.0044 -0.285247,-0.01868 -0.6242,-0.09356 -0.902621,-0.147294 -0.556699,-0.08754 -1.147093,-0.293521 -1.71622,-0.163603 -0.418028,0.09543 -1.067842,0.554047 -1.304197,0.693485 -0.129429,-0.170014 -0.440703,0.599425 -0.589888,0.411702 -0.07366,-0.09269 0.344622,-0.170052 0.254918,-0.247316 -0.126746,-0.10917 -0.333325,0.03909 -0.500571,0.03573 -0.520417,-0.01046 -0.794377,-0.09552 -1.310576,-0.204247 -1.130472,-0.299572 -2.211618,-0.757822 -3.254542,-1.282125 -0.329544,-0.213201 -0.580898,-0.03164 -0.913201,-0.01364 -0.64053,-0.128732 -1.215639,-0.472451 -1.790407,-0.770666 -0.436478,-0.279272 -1.067488,-0.08378 -1.266946,0.431863 -0.225314,0.392078 0.724746,-0.083 0.489939,-0.345012 -0.0045,-0.0044 -0.009,-0.0087 -0.01355,-0.0131 0,0 -0.609463,0.390623 -0.609463,0.390623 v 0 c 0.0016,-3.96e-4 0.003,-7.93e-4 0.0045,-0.0012 0.217963,0.26457 0.738573,-0.02768 0.798639,-0.335999 0.02553,-0.04367 0.138266,-0.142276 0.09279,-0.12011 -0.940536,0.458419 -0.52396,0.164436 -0.10558,0.392849 0.582795,0.30131 1.161111,0.642023 1.800863,0.804875 0.37297,0.02855 0.520211,-0.231676 0.905039,-0.02036 1.05782,0.512018 2.144906,0.973343 3.279981,1.285893 0.448136,0.102534 1.338908,0.369263 1.804549,0.218944 0.615161,-0.198589 1.118528,-0.510707 1.619705,-0.889012 -0.108993,0.05597 -0.394954,0.06596 -0.326983,0.167897 0.06859,0.102875 0.220721,-0.115605 0.339908,-0.148515 0.560551,-0.154783 1.156782,0.05205 1.706676,0.142628 0.964163,0.19376 2.021967,0.434492 2.54327,-0.720233 0.101095,-0.35739 0.17132,-0.734873 0.31332,-1.079076 0.04745,-0.115029 0.100512,-0.228972 0.16905,-0.332827 0.06338,-0.09604 0.318818,-0.19757 0.223951,-0.262689 -0.108426,-0.07443 -0.236389,0.115345 -0.354584,0.173018 0.982282,-0.357311 2.072762,-0.321532 2.87324,-1.13665 0.45638,-0.698038 0.460505,-1.551398 0.840828,-2.288219 0.0712,-0.105504 0.29533,-0.218925 0.213614,-0.316514 -0.08394,-0.100242 -0.252164,0.185523 -0.370269,0.129433 -0.101867,-0.04838 0.191786,-0.120378 0.295352,-0.165012 0.59817,-0.257796 1.183817,-0.274714 1.698553,-0.794631 0.110858,-0.09097 0.234167,-0.168589 0.332574,-0.2729 0.586644,-0.621841 0.556064,-1.573332 0.729686,-2.355985 0.162044,-0.75363 0.370822,-1.459432 1.057852,-1.896154 0.850614,-0.682937 0.7596,-1.284242 0.782153,-2.31937 0.02871,-0.9370636 0.0076,-1.9619661 0.465114,-2.8077249 C 97.680866,7.496399 97.457552,7.2836999 97.053118,6.7966161 96.620691,6.2650327 96.196384,5.6777019 95.601389,5.3186758 95.288181,5.2382713 94.942828,5.2909591 94.648268,5.1114126 94.001769,4.8638653 93.363901,4.5942805 92.738632,4.2968605 92.361812,4.1444341 91.968758,4.0366227 91.615952,3.8244981 90.7427,3.3876898 89.870226,2.9032406 88.90592,2.7041496 87.948533,2.5774692 86.975909,2.6774415 86.030992,2.4515911 84.986557,2.194192 83.949547,1.8526577 82.863914,1.8316042 81.744798,1.8678525 80.643303,2.1678384 79.517549,2.0422904 78.397697,1.9863206 77.291514,1.9396712 76.250307,2.4380547 75.355597,2.801031 74.495352,3.1579372 73.51288,2.9188433 72.67209,2.7729569 71.827423,2.6257368 71.062074,3.1100413 70.818977,3.2323616 70.608179,3.3532908 70.3425,3.4254167 69.624823,3.6202493 68.875536,3.4044857 68.150012,3.3956387 66.902374,3.3461977 65.664746,3.4006287 64.482418,3.8497516 64.210125,3.9356286 64.016767,4.0145465 63.72956,4.035419 63.016881,4.087212 62.345429,3.7598462 61.687709,3.5423124 60.607728,3.1675139 59.515104,2.7399534 58.351065,2.9206124 57.658592,2.9830424 56.991384,2.9299324 56.309153,2.782515 55.045977,2.618481 53.767383,2.4978255 52.498138,2.6784097 51.815348,2.7781397 51.174861,2.9446919 50.538975,3.2111744 49.633883,3.3591751 48.72102,3.1722396 47.817304,3.0904468 47.171347,3.0350362 46.532524,2.9892479 45.915418,3.2265434 45.148132,3.3139316 44.378821,3.1003147 43.612929,3.0754645 42.507214,2.9973151 41.317611,2.9135564 40.495344,3.8432062 40.383237,4.0580352 40.39512,4.0030045 40.33925,4.230996 c -0.01392,0.05677 -0.01881,0.1156483 -0.03486,0.1718481 -0.01265,0.04425 -0.0948,0.1422173 -0.05092,0.1283325 0.160353,-0.050744 0.898821,-0.4527979 0.446971,-0.2341213 -0.731292,0.027858 -1.464807,-0.2163271 -2.195764,-0.045374 -1.208539,0.5774306 -1.765315,0.7327299 -2.086266,2.0842367 -0.04334,0.216358 -0.07403,0.4354472 -0.126584,0.6497539 -0.01601,0.06523 -0.129725,0.2021642 -0.06346,0.1912345 1.225653,-0.2021475 0.487064,-0.3477797 0.226309,-0.1944645 -1.000554,0.2356273 -1.94908,0.8081721 -2.378332,1.765446 -0.205748,0.7604532 -0.226666,1.5000521 0.324861,2.1253471 0.182809,0.201101 0.207338,0.407752 0.289385,0.667022 0.375928,0.763867 0.930429,1.389004 1.697392,1.783052 0.454525,0.196727 0.356524,0.176505 0.804783,0.292296 0.175295,0.04528 0.489448,0.05718 0.651984,0.160672 0.02572,0.01637 0.03701,0.04845 0.05551,0.07268 0.272725,0.618261 0.696209,1.148303 1.180775,1.616409 0.467241,0.396373 0.66779,0.608373 1.229151,0.900463 1.066535,0.554944 2.274615,0.698167 3.459694,0.685505 0.251341,-0.01407 0.503171,-0.02118 0.754028,-0.04219 0.479676,-0.04018 1.08802,-0.288948 1.505881,0.03742 0.936639,0.749967 1.933478,1.427149 3.014314,1.954003 1.311391,0.586522 2.687603,1.119135 4.150772,0.869123 0.600911,-0.143846 0.299461,-0.04041 1.146914,-0.548809 0.199792,-0.119858 -0.402448,0.235397 -0.610016,0.341221 -0.05086,0.02593 0.264353,-0.19009 0.178573,0.01872 0.659519,0.429259 1.349174,0.809788 2.108986,1.034376 0.98494,0.27207 2.02612,0.534628 3.040866,0.258061 0.403821,-0.138216 0.04108,-0.274442 0.285539,0.03058 0.499708,0.423135 1.179732,0.547996 1.80304,0.671205 0.947634,0.109016 1.908035,0.123216 2.852092,-0.03504 0.554934,-0.127516 1.056267,-0.293853 1.525338,-0.656137 0.06686,-0.05744 0.136576,-0.116346 0.166011,-0.202401 0.0765,-0.314711 -0.59149,-0.03853 -0.686012,0.205218 -0.04413,0.07429 -0.08452,0.151041 -0.114469,0.232303 -0.0752,0.214843 -0.120994,0.438082 -0.18609,0.65605 -0.148479,0.52579 -0.295301,1.05207 -0.429829,1.581648 -0.308311,1.20629 -0.575109,2.422949 -0.904457,3.623954 -0.503264,1.85456 -1.048001,3.697012 -1.642681,5.524441 0,0 0.581382,-0.273812 0.581382,-0.273812 z" />
    <path
       style="fill:#000000;stroke-width:0.264583"
       id="path1182"
       d="m 74.012747,23.008541 c -0.953199,0.625927 -1.881844,1.287927 -2.816712,1.940608 -0.197054,0.13506 -0.393668,0.270769 -0.591166,0.40518 -0.602824,0.41026 -1.209138,0.815358 -1.828184,1.200884 -0.972976,0.605943 -0.630589,0.38699 -0.423145,0.253497 -0.793877,0.42536 -1.625164,0.773671 -2.433664,1.169424 -0.686504,0.335992 -1.374093,0.677558 -2.002542,1.116182 -0.260286,0.186076 -0.503409,0.393597 -0.723463,0.625634 -0.139388,0.157636 -0.297037,0.298958 -0.420965,0.469548 -0.08857,0.132884 -0.173665,0.273081 -0.22801,0.423817 0.113699,0.07775 0.274807,-0.143031 0.288181,0.03396 0,0 0.01802,-0.0087 0.01802,-0.0087 v 0 c 0.08101,-0.181025 0.290725,-0.210378 0.418375,-0.353809 0.08361,-0.138089 0.148172,-0.288049 0.248336,-0.415819 0.127905,-0.161298 0.277267,-0.304062 0.415184,-0.456602 0.220601,-0.223541 0.460364,-0.426702 0.718288,-0.606362 0.304837,-0.205748 0.288086,-0.187573 -0.307361,0.153088 -0.07038,0.04026 0.141581,-0.0791 0.213238,-0.117043 0.251569,-0.133208 0.509109,-0.254884 0.762577,-0.384347 0.814956,-0.405578 1.654524,-0.759458 2.459622,-1.184892 1.392653,-0.798153 2.757371,-1.638796 4.061158,-2.577495 0.925645,-0.649231 1.846961,-1.305031 2.790558,-1.928163 0,0 -0.618318,0.241396 -0.618318,0.241396 z" />
    <path
       style="fill:#000000;stroke-width:0.264583"
       id="path7575"
       d="M 42.856933,14.047923 C 43.649516,11.799779 44.540609,9.5849404 45.505724,7.4054112 45.6825,7.0360005 45.964033,6.404665 46.20542,6.0396151 c 0.08046,-0.1216795 0.411572,-0.4001119 0.280638,-0.3358007 -3.084777,1.5151457 -1.623113,0.4157972 -1.291074,1.0725809 0.08784,0.17375 0.13756,0.3642757 0.206338,0.5464138 0.456271,1.807555 0.800844,3.6408069 1.242475,5.4524089 0.04937,0.15242 0.142383,0.613916 0.34275,0.738205 0.07724,0.04791 0.192952,0.07775 0.270909,0.03101 0.670732,-0.402123 1.341001,-0.822003 1.921859,-1.345632 0.175988,-0.158648 0.196612,-0.431204 0.290497,-0.648749 0.115427,-0.267455 0.22493,-0.537429 0.337394,-0.806143 0.342405,-0.8373575 0.668009,-1.6815071 1.013695,-2.5175365 0.237527,-0.5744533 0.512734,-1.1170031 0.662229,-1.7206619 -0.142045,-0.3685148 -0.0069,-0.2321856 -0.552294,-0.1631775 0,0 -0.03623,0.016947 -0.03623,0.016947 v 0 c -0.751353,0.5390573 -0.436049,0.242529 -0.971193,0.8619127 -0.795689,1.3509728 -1.192067,2.8994352 -1.849072,4.3184292 -0.11897,0.268551 -0.230225,0.540655 -0.35691,0.805653 -0.102645,0.214708 -0.568688,0.635686 -0.330724,0.632723 0.523682,-0.0065 0.940967,-0.464361 1.432023,-0.646434 0.0689,-0.02555 -0.06899,0.170925 -0.142428,0.168279 -0.24184,-0.0087 -0.225285,-0.677115 -0.340453,-0.641212 C 47.84813,10.050303 47.501005,8.2124316 47.093393,6.385429 46.937334,5.9351391 46.771247,5.3372495 46.595535,5.3940461 44.674152,6.0151049 44.471563,6.6598183 43.793513,8.1913557 42.854477,10.405145 41.967631,12.641585 41.0855,14.878459 c 0,0 1.771433,-0.830537 1.771433,-0.830537 z" />
    <path
       style="fill:#000000;stroke-width:0.264583"
       id="path7577"
       d="m 53.738343,8.6525123 c -0.590085,1.0337778 -0.906846,2.2258327 -0.770147,3.4206857 0.02922,0.255442 0.103897,0.50361 0.155845,0.755415 0.198205,0.437505 0.287433,0.80785 0.708147,1.094032 1.304382,0.887282 3.317121,-0.884209 4.152003,-1.391236 1.008986,-1.097738 1.606904,-2.584032 1.338363,-4.0922451 C 59.275432,8.174515 59.166119,7.9248033 59.087903,7.6676228 58.935672,7.4567144 58.815877,7.2180801 58.631213,7.0348972 58.034724,6.4431833 57.23859,6.2937953 56.481678,6.6856204 54.654912,7.6312672 54.924036,7.2113938 54.521822,8.2892349 54.44364,8.489558 54.365458,8.689881 54.287276,8.8902041 c 0,0 0.03656,-0.016235 0.03656,-0.016235 v 0 c 0.184563,-0.2450809 0.369123,-0.490162 0.553686,-0.7352432 0.294052,-0.2506451 0.648739,-0.4440306 0.88216,-0.7519352 0.106214,-0.1401104 -0.6092,0.1020169 -0.479208,0.2203997 0.144047,0.1311804 0.372634,-0.1394161 0.56746,-0.1400288 0.742069,-0.00233 1.249555,0.5119351 1.615157,1.0897531 0.07407,0.2431859 0.178054,0.4792056 0.222202,0.7295581 0.258228,1.4643392 -0.359672,2.8961972 -1.390653,3.9091322 0.305353,-0.149937 0.627769,-0.269229 0.916059,-0.449812 0.201907,-0.126474 -0.426101,0.21989 -0.654923,0.286239 -1.006628,0.291879 -1.486545,-0.161353 -1.844286,-1.053481 -0.04998,-0.240991 -0.122325,-0.478407 -0.149939,-0.722972 -0.126762,-1.122662 0.146986,-2.2534637 0.653468,-3.2508495 0,0 -1.476674,0.6477831 -1.476674,0.6477831 z" />
    <path
       style="fill:#000000;stroke-width:0.264583"
       id="path7669"
       d="m 60.771828,9.7458481 c -0.538576,0.5889339 -0.901108,1.2754529 -1.048179,2.0576019 -0.04696,0.793323 0.420156,1.229628 1.081236,1.556255 0.694544,0.30783 1.405644,0.311052 2.129522,0.127813 1.219134,-0.417853 2.246593,-1.025358 2.699031,-2.203394 0.18679,-0.653888 0.143565,-1.304044 -0.0963,-1.933461 -0.352359,-0.7272025 -1.015206,-0.997744 -1.772145,-1.1163387 -0.925266,0.113425 -1.709758,0.6201402 -2.433113,1.1987241 -0.07146,0.05716 -0.06399,0.1714664 -0.09599,0.2571996 0,0 0.03697,-0.015264 0.03697,-0.015264 v 0 c 0.218262,-0.1586362 0.4534,-0.2963349 0.654791,-0.4759084 0.100631,-0.089733 -0.357794,0.069094 -0.349475,0.203667 0.01595,0.2581045 0.743275,-0.5475787 0.759113,-0.1599954 0.701318,0.077804 1.333167,0.2903093 1.676633,0.9551288 0.224851,0.592128 0.256609,1.205389 0.04699,1.811302 -0.1241,0.278688 -0.251894,0.529813 -0.465651,0.753307 -0.07072,0.07394 -0.320651,0.24895 -0.228025,0.205483 0.319762,-0.150057 1.857512,-1.005871 0.92144,-0.523288 -0.695619,0.222869 -1.389211,0.259446 -2.081302,-0.01315 -0.611278,-0.268308 -1.052164,-0.620015 -1.005766,-1.347643 0.133434,-0.746468 0.501248,-1.3855754 1.018323,-1.9392406 0,0 -1.448112,0.601204 -1.448112,0.601204 z" />
    <path
       style="fill:#000000;stroke-width:0.264583"
       id="path7671"
       d="m 68.54617,9.1386262 c -1.329132,0.7075842 -2.062478,1.0244648 -2.463613,2.4161728 -0.144745,0.735646 0.04391,1.435738 0.495785,2.020736 0.585202,0.574186 1.323583,0.642463 2.097685,0.537757 1.333484,-0.353245 2.512097,-0.991956 3.210462,-2.191216 0.224663,-0.484053 0.447082,-1.116848 0.150294,-1.627004 -0.06389,-0.109827 -0.161256,-0.196402 -0.241882,-0.294603 -0.758412,-0.5449495 -1.740392,-0.8155738 -2.648699,-0.4871973 -0.289348,0.104607 -0.55273,0.27046 -0.829096,0.4056901 -0.130444,0.075957 -0.260892,0.1519132 -0.391337,0.2278692 0,0 -0.03113,0.02512 -0.03113,0.02512 v 0 c 0.09782,-0.05124 0.195646,-0.102472 0.29347,-0.153708 0.02122,0.05072 0.01744,0.122345 0.06364,0.152169 0.146981,0.0949 0.72076,0.160729 0.826072,0.18327 0.453056,0.09697 0.894868,0.233828 1.267817,0.518365 0.07036,0.08031 0.156445,0.149192 0.21109,0.240919 0.276434,0.464009 0.01,1.061334 -0.201049,1.486078 -0.164111,0.255629 -0.219999,0.371261 -0.436976,0.591123 -0.08807,0.08925 -0.398909,0.297465 -0.284575,0.245994 2.367008,-1.065579 0.878861,-0.53276 0.367337,-0.318124 -0.72208,0.132366 -1.426832,0.125391 -2.003295,-0.393944 -0.452342,-0.511052 -0.613273,-1.171556 -0.489577,-1.844963 0.137644,-0.452628 0.32345,-0.865374 0.674415,-1.197279 0.07605,-0.071918 0.340526,-0.2406981 0.246766,-0.1941759 -0.364437,0.1808274 -0.708821,0.3995283 -1.063233,0.5992919 0,0 1.179629,-0.9483463 1.179629,-0.9483463 z" />
    <path
       style="fill:#000000;stroke-width:0.264583"
       id="path7673"
       d="m 73.426137,11.928227 c -0.288544,0.547654 -0.490977,1.025548 -0.157417,1.5955 0.493355,0.473378 1.15992,0.538966 1.81047,0.487355 0.993687,-0.240094 2.371016,-0.662691 2.463575,-1.795894 -0.08769,-0.688875 -0.702837,-1.050211 -1.280491,-1.313159 -0.99233,-0.288951 -1.315178,0.132366 -2.02923,0.809663 0,0 0.03665,-0.01602 0.03665,-0.01602 v 0 c -0.126365,0.06544 -0.251526,0.133257 -0.379095,0.196316 -0.04028,0.01992 0.07432,-0.05304 0.117097,-0.06681 0.272764,-0.08778 0.55326,-0.04884 0.822246,0.02959 0.505423,0.21318 1.11108,0.508247 1.162909,1.123167 -0.03779,0.178198 -0.02673,0.224452 -0.143451,0.37379 -0.04404,0.05635 -0.217914,0.181476 -0.153988,0.149407 2.5233,-1.265826 1.320086,-0.685004 0.749446,-0.505256 -0.596765,0.08431 -1.217036,0.06542 -1.712815,-0.321828 -0.296164,-0.4595 -0.06931,-0.962235 0.176723,-1.400668 0,0 -1.482629,0.654847 -1.482629,0.654847 z" />
    <path
       style="fill:#000000;stroke-width:0.264583"
       id="path7675"
       d="m 78.007852,12.606203 c -0.07219,0.626171 0.118904,1.143779 0.636535,1.50181 1.056843,0.481413 1.611077,-0.200661 2.611961,-0.797306 0.257701,-0.300705 0.284445,-0.637165 0.210428,-1.010403 -0.13217,-0.446721 -0.434678,-0.723499 -0.861483,-0.88096 -0.730382,-0.12918 -1.509305,0.462244 -1.970685,0.94147 -0.08571,0.08903 0.246668,0.01554 0.370001,0.02332 0,0 0.0362,-0.017 0.0362,-0.017 v 0 c 0.768215,-0.592091 0.708679,-0.505056 -0.382031,0.09889 -0.08469,0.04689 0.183639,-0.07265 0.280397,-0.07558 0.07357,-0.0022 0.146894,0.0095 0.220342,0.0142 0.386337,0.09544 0.698204,0.292288 0.826839,0.688482 0.06993,0.321225 0.01638,0.603844 -0.246531,0.824027 0.421585,-0.23499 0.842317,-0.471516 1.264754,-0.704971 0.05196,-0.02872 -0.09784,0.06948 -0.153279,0.09073 -0.277389,0.106335 -0.59382,0.02743 -0.861475,-0.06146 -0.503415,-0.28193 -0.643448,-0.768816 -0.5749,-1.328547 0,0 -1.407078,0.693308 -1.407078,0.693308 z" />
    <path
       style="fill:#000000;stroke-width:0.264583"
       id="path7677"
       d="m 81.969413,13.487073 c 0.276715,0.365373 0.585518,0.725244 1.052743,0.81598 0.790083,-0.0562 1.957599,-0.57538 1.798629,-1.454967 -0.09042,-0.298291 -0.334052,-0.480361 -0.598712,-0.619044 -0.55803,-0.400997 -3.026881,0.550709 -1.78643,0.892845 0.400598,0.03479 0.210069,0.0081 0.572249,0.0753 0,0 0.03493,-0.0195 0.03493,-0.0195 v 0 c 0.198819,-0.37173 0.07173,-0.185409 0.401574,-0.544563 0.717018,-0.517377 0.352674,-0.238221 -1.102365,0.572606 -0.01894,0.01055 0.03361,-0.03035 0.05477,-0.0351 0.103733,-0.02326 0.220197,0.03456 0.317656,0.05617 0.227087,0.09231 0.452025,0.207372 0.549611,0.447104 0.01421,0.09805 0.01736,0.180355 -0.04921,0.263357 -0.02188,0.02729 -0.108514,0.08716 -0.0777,0.07058 1.090054,-0.586146 1.861865,-1.072134 1.277823,-0.706296 -0.438946,0.05361 -0.747839,-0.366527 -0.985139,-0.678923 0,0 -1.460423,0.864447 -1.460423,0.864447 z" />
    <path
       style="fill:#000000;stroke-width:0.264583"
       id="path7679"
       d="m 84.881674,14.208152 c 0.335201,0.220605 0.694846,0.400253 1.082299,0.506399 0.66403,0.163464 1.906574,-0.532079 1.508324,-1.176835 -0.06892,-0.07946 -0.148699,-0.149632 -0.228857,-0.217655 -0.0954,-0.07717 -0.210164,-0.125735 -0.322604,-0.172518 -0.126452,-0.05395 -0.260252,-0.06832 -0.396317,-0.06416 -0.574772,-0.0067 -1.905246,1.011471 -1.535247,0.932521 0.170024,-0.03628 0.331311,-0.105509 0.49697,-0.158264 0.02922,0.0081 0.05845,0.01623 0.08767,0.02434 0,0 0.03511,-0.01918 0.03511,-0.01918 v 0 c 0.01757,-0.03127 0.03514,-0.06254 0.05272,-0.09381 0.167109,-0.09424 0.334807,-0.187443 0.501328,-0.282714 0.777679,-0.444929 -1.822969,0.92832 -1.025099,0.620478 0.119959,-0.01486 0.238884,-0.02785 0.357621,0.005 0.102899,0.0286 0.203324,0.06647 0.296476,0.119255 0.07093,0.0538 0.13748,0.11289 0.206457,0.16912 0.02016,0.02618 -0.0075,0.11263 0.02143,0.09678 2.918098,-1.595859 1.707717,-1.053719 1.316406,-0.744456 -0.38911,-0.02545 -0.748041,-0.234545 -1.074153,-0.431089 0,0 -1.380538,0.886783 -1.380538,0.886783 z" />
    <path
       style="fill:#000000;stroke-width:0.264583"
       id="path7681"
       d="m 87.848561,14.904757 c 0.249608,0.19257 0.329583,0.509396 0.506063,0.749595 2.988249,-1.601707 1.586457,-0.886344 0.290769,-0.06369 -0.03642,0.02312 0.08248,-0.02854 0.12551,-0.03156 0.134512,-0.0094 0.249402,0.05873 0.362472,0.119394 0.439618,0.583153 2.236504,-0.433331 1.630272,-0.904206 -0.277894,-0.193793 -0.686422,0.223863 -0.8724,0.331481 0,0 -0.03576,0.01792 -0.03576,0.01792 v 0 c -0.08438,0.0522 -0.868375,0.310715 -0.638556,0.611968 0.585002,0.574311 2.371553,-0.669092 1.447708,-1.056573 -0.11965,-0.06657 -0.453128,-0.280438 -0.597588,-0.206632 -0.08223,0.04201 -4.058719,2.26836 -0.157462,0.227922 -0.104626,-0.195861 -0.289806,-0.550356 -0.493178,-0.747613 0,0 -1.567846,0.951996 -1.567846,0.951996 z" />
    <path
       style="fill:#000000;stroke-width:0.264583"
       id="path7683"
       d="m 90.734294,16.511429 c 0.168921,0.396586 0.406495,0.765337 0.556692,1.169936 -0.50065,-0.472582 0.02676,0.04748 1.585846,-1.03575 0.01881,-0.01308 -0.125836,-0.109101 -0.215548,-0.273777 0.0078,0.0074 0.03239,0.01624 0.02344,0.02227 -0.271166,0.18283 -2.433392,1.322989 -1.206267,1.070269 0.277317,0.329918 -0.02196,0.347636 0.60516,0.394646 0,0 0.03549,-0.01844 0.03549,-0.01844 v 0 c 0.277762,-0.32261 0.499644,-0.619451 0.574246,-1.043967 0.04093,-0.08837 0.116824,-0.161302 0.14188,-0.255415 0.11303,-0.424566 -2.033418,0.06824 -1.849339,0.800985 0.418684,0.663271 2.120474,1.541434 1.99336,-0.609073 -0.187764,-0.389576 -0.413919,-0.761064 -0.578527,-1.162153 0,0 -1.666452,0.940474 -1.666452,0.940474 z" />
  </g>
</svg>
