<?xml version="1.0" encoding="UTF-8" standalone="no"?>
<!-- Created with Inkscape (http://www.inkscape.org/) -->

<svg
   width="100mm"
   height="100mm"
   viewBox="0 0 100 100"
   version="1.1"
   id="svg5"
   inkscape:version="1.1.2 (0a00cf5339, 2022-02-04)"
   sodipodi:docname="7.svg"
   xmlns:inkscape="http://www.inkscape.org/namespaces/inkscape"
   xmlns:sodipodi="http://sodipodi.sourceforge.net/DTD/sodipodi-0.dtd"
   xmlns="http://www.w3.org/2000/svg"
   xmlns:svg="http://www.w3.org/2000/svg">
  <sodipodi:namedview
     id="namedview7"
     pagecolor="#ffffff"
     bordercolor="#999999"
     borderopacity="1"
     inkscape:pageshadow="0"
     inkscape:pageopacity="0"
     inkscape:pagecheckerboard="0"
     inkscape:document-units="mm"
     showgrid="false"
     width="199mm"
     inkscape:zoom="1.0289025"
     inkscape:cx="248.8088"
     inkscape:cy="208.96052"
     inkscape:window-width="1366"
     inkscape:window-height="695"
     inkscape:window-x="0"
     inkscape:window-y="0"
     inkscape:window-maximized="1"
     inkscape:current-layer="layer1" />
  <defs
     id="defs2" />
  <g
     inkscape:label="Layer 1"
     inkscape:groupmode="layer"
     id="layer1">
    <path
       style="fill:#552200;stroke-width:0.264583"
       id="path221"
       d="m 14.08697,98.677462 c -0.179562,-1.166006 -0.226082,-2.347987 -0.271974,-3.525311 -0.04776,-1.533486 -0.01754,-3.067291 -0.05188,-4.601099 -0.05214,-1.61153 -0.118673,-3.222546 -0.236113,-4.830712 -0.136215,-1.679155 -0.215983,-3.362087 -0.317548,-5.043525 -0.120804,-1.857034 -0.274375,-3.711691 -0.399412,-5.568442 -0.124466,-1.942576 -0.250449,-3.884898 -0.338827,-5.829496 -0.09424,-2.03867 -0.176374,-4.077631 -0.191607,-6.118545 0.02129,-1.988793 0.01211,-3.977711 0.04648,-5.966346 0.0269,-1.976779 0.09957,-3.952435 0.214693,-5.925947 0.124463,-1.819658 0.229462,-3.64041 0.331592,-5.461426 0.107711,-1.466614 0.100178,-2.93707 0.06579,-4.406087 -0.01551,-1.029748 -0.146989,-2.048571 -0.303273,-3.06437 -0.145155,-0.852199 -0.218397,-1.713587 -0.264401,-2.576068 -0.07236,-1.072835 -0.0052,-2.143265 0.118737,-3.208999 0.163391,-1.078875 0.29226,-2.161103 0.373313,-3.249163 0.06854,-0.988845 0.0706,-1.980324 0.07597,-2.970998 -0.01349,-0.989099 0.02786,-1.976771 0.08639,-2.963784 0.04197,-0.740188 0.06172,-1.481309 0.07167,-2.222537 0.04095,-0.429581 -0.04622,-0.875626 0.0419,-1.30034 0.08128,-0.06074 0.03283,-0.04798 0.150212,-0.005 -1.107774,0.644963 -2.221297,1.280154 -3.3233232,1.934891 -0.037753,0.02243 0.083143,-0.03096 0.1267932,-0.03576 0.118205,-0.01301 0.321192,0.0163 0.428795,0.02764 0.847626,0.131935 1.701046,0.216479 2.556451,0.276442 1.21887,0.05439 2.438574,0.06091 3.657416,0.119614 1.130704,0.05952 2.262513,0.0966 3.394264,0.12961 1.03963,0.02712 2.078619,0.06774 3.117242,0.120285 1.052501,0.06873 2.105912,0.111815 3.160643,0.09677 1.148774,-0.03552 2.29233,-0.157885 3.437989,-0.24331 0.997185,-0.07858 1.996892,-0.08557 2.996401,-0.08579 0.984099,-0.0011 1.967653,-0.05181 2.948619,-0.127424 0.772862,-0.06317 1.533126,-0.219869 2.293419,-0.365572 0.716574,-0.137929 1.437786,-0.248 2.16457,-0.31338 0.69556,-0.05262 1.393486,-0.05542 2.0906,-0.06333 1.026689,0.01794 2.032836,-0.187494 3.028034,-0.414616 0.782807,-0.178675 1.564719,-0.368478 2.359583,-0.48633 0.387245,-0.06465 0.769213,-0.02379 1.149305,0.05769 0.361519,0.09658 0.726501,0.1698 1.09836,0.210939 0.407667,0.04106 0.817652,0.01781 1.225992,0.0026 0.105542,-0.01834 0.732091,0.02097 0.717605,-0.08751 -0.19486,0.521964 -0.231296,1.158863 -0.313407,1.714239 -0.170365,1.178851 -0.11771,2.36851 -0.06035,3.552899 0.06829,1.110746 0.09207,2.223152 0.06816,3.33559 -0.01646,0.883002 -0.106619,1.761173 -0.20864,2.637565 -0.07972,0.719045 -0.124036,1.441127 -0.151365,2.163831 -0.02738,0.612299 -0.01767,1.225048 -0.02021,1.837653 5.29e-4,0.315971 -0.01455,0.632275 -0.0655,0.944333 0.0016,0.02614 -0.01312,0.05928 0.0047,0.07843 0.01675,0.01794 0.05152,0.01635 0.07349,0.0054 0.268494,-0.134419 0.525267,-0.291076 0.787901,-0.436613 0,0 1.7483,-0.720484 1.7483,-0.720484 v 0 c 0.282371,-0.160793 0.841663,-0.294725 0.948206,-0.689835 0.02432,-0.325443 0.03549,-0.652076 0.01982,-0.978289 -0.01656,-0.60284 -0.01789,-1.205772 0.0081,-1.808475 0.03106,-0.713861 0.07884,-1.427165 0.157184,-2.137537 0.0873,-0.883158 0.162438,-1.768461 0.164968,-2.656662 0.0058,-1.117738 -0.01625,-2.235026 -0.0904,-3.35064 -0.0538,-1.163988 -0.09926,-2.336039 0.112535,-3.488891 0.07274,-0.41455 0.360638,-1.49001 0.290246,-1.874886 -0.01344,-0.07343 -0.05317,-0.139502 -0.07975,-0.209254 -0.289756,-0.362586 -0.503698,-0.165039 -0.923459,-0.1689 -0.39614,0.02047 -0.792906,0.04164 -1.189678,0.03283 -0.360349,-0.0188 -0.719738,-0.05541 -1.066353,-0.162123 -0.407942,-0.102442 -0.8187,-0.205951 -1.243435,-0.162976 -0.825035,0.08823 -1.626116,0.319298 -2.4353,0.494244 -0.968798,0.225436 -1.944639,0.474553 -2.947077,0.460877 -0.70005,0.0022 -1.400709,-0.0047 -2.099937,0.03589 -0.73751,0.04881 -1.468371,0.146925 -2.194938,0.28388 -0.759944,0.137786 -1.513843,0.312615 -2.281603,0.403338 -0.975542,0.09889 -1.955937,0.153501 -2.936504,0.16267 -1.010428,-0.0048 -2.021367,-0.01201 -3.029329,0.07411 -1.139131,0.07952 -2.275382,0.199478 -3.416416,0.250798 -1.047702,0.03468 -2.094299,10e-4 -3.139865,-0.07457 -1.043287,-0.05983 -2.087127,-0.09724 -3.131879,-0.120618 -1.132454,-0.03769 -2.265399,-0.06278 -3.397146,-0.119618 -1.213828,-0.05761 -2.428146,-0.08123 -3.64255,-0.119808 -0.832858,-0.05792 -1.665841,-0.135637 -2.487607,-0.287328 -0.02274,-0.0044 -0.610684,-0.125441 -0.614361,-0.123514 -2.447574,1.282872 -3.4939442,0.697383 -3.5543769,2.244477 -0.00233,0.436669 0.024863,0.873362 0.012764,1.310186 -0.00738,0.733133 -0.021513,1.466223 -0.05692,2.198623 -0.038809,0.99074 -0.07402,1.981885 -0.068242,2.973585 -0.00607,0.982049 -0.018426,1.964741 -0.084769,2.944908 -0.083458,1.077624 -0.2233787,2.14874 -0.3475299,3.222212 -0.1104826,1.087552 -0.1832099,2.181794 -0.1081043,3.274677 0.050726,0.876281 0.119312,1.751944 0.273925,2.617113 0.1688071,0.990637 0.3002389,1.988087 0.3279227,2.994024 0.049096,1.451629 0.046607,2.903813 -0.031085,4.35468 -0.081931,1.817327 -0.2099866,3.631946 -0.3071789,5.448479 -0.090945,1.976372 -0.1701422,3.953307 -0.1939621,5.931853 -0.017566,1.986044 -0.027408,3.972353 -0.010268,5.958424 0.034493,2.042139 0.1076565,4.082836 0.2141672,6.122535 0.1048562,1.938433 0.2246746,3.876316 0.3985136,5.809962 0.1620496,1.845686 0.303068,3.693057 0.4462946,5.540282 0.126567,1.673604 0.220976,3.349583 0.368317,5.021628 0.13515,1.582631 0.287504,3.164279 0.355229,4.751811 0.06983,1.512466 0.111621,3.026066 0.184924,4.5384 0.07161,1.178507 0.157111,2.357607 0.371316,3.520539 0,0 2.76198,-1.471143 2.76198,-1.471143 z" />
    <path
       style="fill:#000000;stroke-width:0.264583"
       id="path40"
       d="m 42.514747,52.075368 c -0.545796,-0.552712 -1.370489,-0.528077 -2.085901,-0.459693 -1.967706,0.508003 -3.917355,1.544913 -5.240065,3.108934 -0.457869,0.541401 -0.542232,0.729999 -0.911675,1.33192 -0.769389,1.583481 -0.995394,3.000476 -0.89473,4.740905 0.100621,1.383845 0.564821,2.531795 1.299961,3.687231 0.716846,1.069874 1.664377,1.91898 2.748325,2.598351 1.173271,0.659402 2.458283,0.930418 3.787571,0.998003 1.293376,0.03594 2.497966,-0.326485 3.634637,-0.913651 2.491552,-1.391751 4.203705,-1.88894 5.128712,-4.359635 0.336762,-1.125554 0.302737,-2.277319 0.152519,-3.427077 -0.159864,-1.170365 -0.530185,-2.284973 -0.996415,-3.364719 -0.452639,-1.030086 -1.146122,-1.904018 -1.949672,-2.679179 -0.484024,-0.393083 -1.385676,-1.248627 -2.006862,-1.346165 -1.073333,-0.168535 -1.775032,0.262689 -2.822745,0.608015 -0.224321,-0.03205 -0.448643,-0.06411 -0.672962,-0.09617 0,0 -0.06538,0.0461 -0.06538,0.0461 v 0 c 0.224181,0.03185 0.448363,0.06371 0.672544,0.09557 -0.146793,0.30581 -0.38736,0.582382 -0.44038,0.917429 -0.06644,0.419857 0.475387,0.614881 0.70513,0.756089 0.488172,0.300049 0.958818,0.623745 1.374386,1.021459 0.763942,0.744939 1.441659,1.563005 1.873618,2.550279 0.454734,1.043755 0.80495,2.128623 0.955156,3.261571 0.121632,1.101781 0.126339,2.214412 -0.270602,3.268089 -0.199356,0.444738 -0.406998,0.852302 -0.724702,1.227489 -0.88166,1.041194 -3.082914,2.077323 2.054106,-0.874149 -1.081865,0.64987 -2.247776,1.0688 -3.524443,1.088507 -1.27898,-0.01707 -2.527245,-0.225298 -3.666016,-0.844114 -1.056998,-0.624633 -1.974292,-1.418172 -2.658595,-2.449615 -0.679802,-1.065015 -1.17163,-2.202654 -1.282303,-3.477573 -0.08622,-1.563126 0.116361,-3.098958 0.89127,-4.487833 0.370197,-0.570775 0.448334,-0.745239 0.916411,-1.247973 0.172442,-0.185211 0.783603,-0.621073 0.550341,-0.522949 -0.866835,0.36464 -1.660728,0.883004 -2.484524,1.336577 -0.171167,0.09424 0.345948,-0.182888 0.526187,-0.258345 0.174117,-0.07289 0.356603,-0.123917 0.534903,-0.185875 0.848413,-0.189222 1.613741,-0.164663 2.466724,-0.02432 0,0 2.425472,-1.623481 2.425472,-1.623481 z" />
    <path
       style="fill:#000000;stroke-width:0.264583"
       id="path42"
       d="m 39.365621,68.286751 c -0.199229,0.938604 -0.306359,1.895255 -0.431512,2.846067 -0.145624,1.111163 -0.26539,2.225403 -0.3863,3.339444 -0.105124,0.813742 -0.183911,1.630082 -0.258294,2.447084 -0.05937,0.582702 -0.1065,1.166399 -0.143348,1.750927 -0.02814,0.489588 -0.03157,0.979856 -0.03005,1.470062 0.006,0.619721 0.01125,1.239383 0.006,1.859119 0.0024,0.574683 -0.02008,1.148821 -0.03712,1.723117 -0.0108,0.567976 0.03106,1.134438 0.07413,1.700229 0.04577,0.558739 0.06755,1.119314 0.06194,1.679861 -0.0013,0.23636 -0.01077,0.472567 -0.01683,0.708842 -0.125103,1.304256 3.767159,-0.514302 3.383351,-1.799299 -0.04766,-0.169929 -0.03109,-0.362818 -0.03005,-0.541028 0.02201,-0.26792 0.07256,-0.229759 -0.117949,-0.495205 -1.448109,0.03302 -2.977576,1.555737 -4.244993,2.503607 -0.901504,0.649978 -1.736241,1.382265 -2.543167,2.14458 -1.011825,0.935876 -1.852446,2.029846 -2.718718,3.095961 -0.696897,0.855644 -1.424049,1.685952 -2.144816,2.52141 -0.551638,0.628852 -1.015971,1.324179 -1.494972,2.007685 -0.441418,0.628208 -0.900206,1.244214 -1.317411,1.888993 -0.162957,0.37764 -0.672855,0.952433 -0.632056,1.372233 0.176221,-0.0587 0.352444,-0.1173 0.528665,-0.17594 0,0 2.228003,-1.012013 2.228003,-1.012013 v 0 c 0.206081,-0.12065 0.41216,-0.2413 0.618241,-0.36195 0.322922,-0.415825 0.462328,-0.94832 0.786162,-1.369177 0.422682,-0.633134 0.869762,-1.249296 1.306166,-1.872975 0.466672,-0.675708 0.943724,-1.344551 1.484934,-1.963687 0.688986,-0.827482 1.388991,-1.645936 2.054193,-2.49293 0.851713,-1.064427 1.712079,-2.127843 2.729061,-3.042098 0.831091,-0.755901 1.686732,-1.483727 2.611197,-2.124699 0.217471,-0.154673 0.328985,-0.23727 0.544824,-0.379471 0.06529,-0.04302 0.265899,-0.164544 0.198091,-0.125613 -1.041471,0.597921 -2.079514,1.201801 -3.119271,1.802701 0.101706,-0.07286 0.0693,-0.02661 0.107024,-0.131326 -0.05378,-0.132995 -0.148452,-0.404294 0.0068,-0.162253 0.03928,0.174601 -0.01066,0.372452 -0.06471,0.537671 -0.344559,1.387181 3.48697,-0.315886 3.377544,-1.626608 -0.0056,-0.231548 -0.02066,-0.462577 -0.02973,-0.693995 -0.02793,-0.564776 -0.0367,-1.130532 -0.08265,-1.694389 -0.04291,-0.553772 -0.07668,-1.10868 -0.05571,-1.66443 0.01323,-0.575225 0.02922,-1.150657 0.01987,-1.72607 -0.0058,-0.621191 -0.0019,-1.242356 0.0076,-1.863503 0.0067,-0.483727 0.01204,-0.967592 0.03386,-1.45093 0.02506,-0.572458 0.06835,-1.143918 0.09052,-1.716532 0.04163,-0.798136 0.09167,-1.595699 0.166177,-2.391558 0.08823,-1.098301 0.171352,-2.197798 0.318299,-3.290213 0.123296,-0.920686 0.252055,-1.841449 0.380079,-2.760945 0,0 -3.223083,1.529244 -3.223083,1.529244 z" />
    <path
       style="fill:#000000;stroke-width:0.264583"
       id="path44"
       d="m 38.712989,88.054002 c 0.123007,1.030867 0.719807,1.970849 1.163119,2.897227 0.659762,1.359347 1.212792,2.76571 1.794232,4.159279 0.449675,1.146183 0.986676,2.252953 1.54215,3.350588 0.386527,0.768876 0.791806,1.528035 1.186199,2.292864 0.174381,0.23521 0.375621,1.17881 0.826018,1.02298 0.448527,-0.15519 0.853136,-0.41617 1.279705,-0.62425 0,0 0.06894,-0.0406 0.06894,-0.0406 v 0 c 0.391248,-0.25888 0.816057,-0.47307 1.173742,-0.77664 0.369666,-0.31374 -0.262154,-0.999482 -0.379425,-1.289425 -0.440415,-0.734989 -0.848585,-1.488186 -1.254623,-2.242577 -0.574881,-1.076246 -1.117677,-2.169657 -1.587965,-3.296266 -0.609764,-1.385869 -1.238306,-2.765243 -1.913613,-4.120253 -0.502533,-0.880894 -0.986036,-1.790174 -1.592622,-2.601661 0,0 -2.305862,1.268714 -2.305862,1.268714 z" />
    <path
       style="fill:#000000;stroke-width:0.264583"
       id="path46"
       d="m 39.976403,77.334231 c 0.98774,0.452517 2.095892,0.537998 3.163621,0.636235 2.192252,0.133276 4.359785,-0.201533 6.472835,-0.756338 3.436861,-0.945972 6.171885,-2.670103 9.262613,-4.449677 1.374105,-0.828593 2.580282,-1.891808 3.537032,-3.177929 0.505965,-0.767374 0.796067,-1.637737 1.06417,-2.508528 0.06733,-0.492808 0.439068,-0.961173 0.429704,-1.459238 -0.806744,0.01889 -0.254902,-0.0305 -1.608325,0.419513 0,0 -0.07172,0.03545 -0.07172,0.03545 v 0 c -1.450551,0.893332 -0.886946,0.479642 -1.749724,1.156523 -0.271274,0.46019 -0.343162,1.004578 -0.512249,1.507207 -0.253992,0.825508 -0.537882,1.648759 -1.053004,2.353964 -0.95122,1.20833 -2.120027,2.205151 -3.448492,2.984441 0.741606,-0.423161 1.491514,-0.832101 2.224823,-1.269486 0.31701,-0.189082 -0.646372,0.356949 -0.975395,0.524258 -1.381543,0.702522 -2.829745,1.266727 -4.305482,1.737043 -2.091338,0.5979 -4.230156,0.965927 -6.415424,0.866288 -1.104558,-0.07789 -2.199714,-0.218996 -3.283323,-0.451043 0,0 -2.731664,1.851316 -2.731664,1.851316 z" />
    <path
       style="fill:#000000;stroke-width:0.264583"
       id="path48"
       d="m 39.949662,73.575105 c -0.94216,0.0307 -1.881346,-0.0146 -2.820644,-0.08878 -1.699082,-0.115538 -3.337882,-0.528486 -4.92488,-1.128421 -1.629457,-0.620747 -3.007891,-1.644634 -4.248885,-2.846983 -1.171334,-1.195798 -1.941605,-2.672411 -2.617512,-4.184187 -0.355321,-0.836041 -0.650375,-1.69549 -0.964999,-2.547091 -0.06378,0.0088 -0.04417,-0.318428 -0.158801,-0.306967 -0.341004,0.03409 -1.688709,0.606216 -1.780843,0.642747 0,0 -0.06931,0.03995 -0.06931,0.03995 v 0 c -0.04219,0.03209 -1.302443,0.95807 -1.496346,1.194978 -0.04322,0.0528 0.100331,0.310022 0.109307,0.328675 0.370433,0.827503 0.751304,1.65035 1.121467,2.47799 0.724069,1.537491 1.565878,3.025458 2.74954,4.262504 1.26109,1.249529 2.690583,2.295334 4.34906,2.961738 1.615477,0.608208 3.282953,1.041929 5.00816,1.191974 1.005793,0.09091 2.031762,0.172172 3.036348,0.03185 0,0 2.708336,-2.029973 2.708336,-2.029973 z" />
    <path
       style="fill:#000000;stroke-width:0.264583"
       id="path56"
       d="m 38.619414,61.671551 c 0.262482,0.557644 0.763696,0.880306 1.310457,1.115266 0.564235,0.222875 1.163108,0.275307 1.763575,0.252006 0.750289,-0.03349 1.283772,-0.416486 1.93063,-0.788387 0.248878,-0.158893 0.453059,-0.370301 0.649386,-0.587968 0.06619,-0.09064 0.179882,-0.17463 0.231872,-0.261829 -0.0317,0.01109 -0.0634,0.02217 -0.0951,0.03324 0,0 -0.604835,0.250913 -0.604835,0.250913 v 0 c -0.03913,0.0186 -0.07826,0.03718 -0.117395,0.05578 -0.105455,0.07296 -0.173604,0.189323 -0.264369,0.27844 -0.194585,0.210536 -0.400381,0.410852 -0.648671,0.558429 1.349925,-0.764556 0.10641,-0.03666 -0.361802,-0.06727 -0.594863,0.03889 -1.190202,-0.0028 -1.75486,-0.209759 -0.534286,-0.216746 -1.021929,-0.512802 -1.290457,-1.046657 0,0 -0.748432,0.417793 -0.748432,0.417793 z" />
    <path
       style="fill:#000000;stroke-width:0.264583"
       id="path58"
       d="m 38.097901,56.174481 c -0.203782,0.227351 -0.402688,0.459081 -0.598085,0.693668 -0.31224,0.266838 2.022457,-1.173464 0.286602,-0.15553 0.173257,-0.100687 0.366305,-0.149526 0.559655,-0.193709 0.199567,-0.02577 0.319238,-0.134472 0.485502,-0.251902 0.01871,-0.0053 0.03741,-0.01061 0.05611,-0.01593 0,0 0.01691,-0.01069 0.01691,-0.01069 v 0 c 0.0076,-0.01368 0.01524,-0.02735 0.02286,-0.04102 0.189979,-0.164174 0.336365,-0.245859 0.04626,-0.158895 -0.19607,0.04695 -0.395944,0.08329 -0.576699,0.177794 -0.253577,0.148074 -0.509744,0.291799 -0.76073,0.44422 -0.09512,0.05776 -0.282366,0.24633 -0.162751,0.212622 0.648592,-0.182774 0.551739,-0.08528 0.75029,-0.314669 0.193029,-0.232524 0.386183,-0.465188 0.591804,-0.686798 0,0 -0.717725,0.300832 -0.717725,0.300832 z" />
    <path
       style="fill:#000000;stroke-width:0.264583"
       id="path64"
       d="m 41.86075,56.187331 c 0.272616,0.0455 0.534995,0.152276 0.809268,0.186243 0.222792,-0.05518 0.08179,-0.01156 0.408725,-0.170349 0,0 0.01683,-0.01082 0.01683,-0.01082 v 0 c 0.220001,-0.211206 0.191323,-0.102695 0.213394,-0.260445 -0.25269,-0.09972 -0.536514,-0.110802 -0.794022,-0.197149 0,0 -0.654188,0.452514 -0.654188,0.452514 z" />
    <path
       style="fill:#000000;stroke-width:0.264583"
       id="path92"
       d="m 51.695333,52.365269 c 1.21575,-1.402024 2.552462,-2.683595 3.943054,-3.909578 0.656736,-0.602692 1.396897,-1.102556 2.091256,-1.657721 0.104556,-0.0836 0.265719,-0.137858 0.299673,-0.267345 0.01897,-0.0723 -0.148717,-0.03694 -0.222687,-0.02622 -0.188074,0.02724 -0.368673,0.09238 -0.553008,0.138563 0,0 -0.05538,0.0231 -0.05538,0.0231 v 0 c -0.4143,0.208952 -1.176607,0.583596 -1.579274,0.82492 -0.91549,0.548669 -1.669984,1.335707 -2.502672,1.992093 -1.391669,1.247542 -2.785301,2.514513 -3.971364,3.963948 0,0 2.5504,-1.081752 2.5504,-1.081752 z" />
    <path
       style="fill:#000000;stroke-width:0.264583"
       id="path94"
       d="m 49.413911,53.609006 c 1.492766,0.165257 2.999891,0.113557 4.499096,0.110551 1.585897,-0.0046 3.171926,-0.0105 4.75777,0.0071 1.039209,-0.0041 1.896245,0.700188 2.760027,1.199038 0.831768,0.443119 1.674101,0.925767 2.602156,1.140418 0.470831,0.1089 0.640387,0.09068 1.108673,0.102185 0.902988,-0.09635 1.79411,-0.121994 2.643934,0.252497 0.225467,0.09936 0.436274,0.229113 0.654409,0.343672 1.126707,0.714069 2.136535,1.595036 3.275179,2.291943 0.731653,0.447807 0.978596,0.540602 1.735635,0.897993 1.192292,0.581078 2.516352,0.623882 3.790141,0.883177 1.61367,0.473048 3.060086,1.359717 4.603123,2.012338 0.631065,0.244531 1.289722,0.320593 1.900092,-0.02233 0.946501,-0.531781 1.863306,-1.116235 2.819106,-1.631117 0.731628,-0.394126 -1.430798,0.845751 -2.146197,1.268624 0.889722,-0.331094 1.829628,-0.04133 2.747624,-0.07021 1.35632,-0.418304 1.046691,-0.281982 3.160387,-1.942867 0.150662,-0.118383 0.158226,-0.349261 0.227052,-0.528079 0.204973,-0.53254 0.35134,-1.085729 0.50111,-1.635424 0.06915,-0.245936 0.107932,-0.495081 0.272061,-0.702204 0.06075,-0.07667 0.310255,-0.236654 0.225523,-0.187775 -3.798996,2.191432 -2.549414,1.396299 -1.497211,1.075325 1.2304,-0.510649 1.152157,-0.456282 3.078231,-1.832589 0.317624,-0.226962 0.581078,-1.916764 0.656495,-2.300489 0.16542,-0.649909 0.255373,-1.395915 0.68757,-1.941274 0.160073,-0.201988 0.331808,-0.303943 0.537562,-0.452467 1.058566,-0.675058 1.343935,-1.855631 1.561806,-3.012164 0.23523,-1.478249 -0.156311,-2.947948 -0.158523,-4.42281 0.02646,-0.09597 0.02619,-0.203761 0.07938,-0.287903 0.03746,-0.05926 0.117147,-0.07705 0.175718,-0.115578 -0.7366,0.447955 -1.479111,0.88633 -2.2098,1.343866 -0.06578,0.04119 0.145579,-0.05551 0.213177,-0.09364 2.721433,-1.535253 2.187843,-0.612876 2.796043,-1.827945 0.33411,-1.656723 0.182848,-3.385032 0.091,-5.062115 0.02874,-1.174596 -0.387297,-2.464797 0.03434,-3.605273 0.509919,-0.769961 -0.602863,-1.735114 -1.045882,-2.233245 -1.409186,-1.550569 -2.835172,-3.090021 -4.428929,-4.453596 -0.703736,-0.681397 -1.60056,-0.814464 -2.496563,-1.082884 -2.521776,-0.85987 -4.902512,-2.070218 -7.315467,-3.187837 -1.030997,-0.416189 -2.137013,-0.945109 -3.285398,-0.801791 -0.359084,0.04481 -0.52121,0.137579 -0.84215,0.273417 -1.051055,0.630827 -2.202841,0.377447 -3.347397,0.195588 -1.334976,-0.17319 -2.716096,-0.623877 -4.074351,-0.392188 -0.167343,0.02855 -0.327638,0.08904 -0.491458,0.133563 -1.220554,0.599686 -0.826381,0.390711 -2.984889,1.791913 -0.102169,0.06632 -0.168497,0.176669 -0.261974,0.254766 -0.08792,0.07345 -0.37851,0.257924 -0.280564,0.198502 2.150043,-1.304391 2.670024,-1.306407 1.408072,-1.126706 -1.474417,-0.02641 -2.896414,-0.464639 -4.352501,-0.651317 -1.450375,-0.05002 -2.03535,0.667065 -3.51313,1.59763 -0.188338,0.118598 -0.3308,0.483731 -0.449839,0.670405 -0.932564,0.666415 1.333775,-0.73483 1.949585,-1.179416 0.101589,-0.07334 -0.248116,0.0404 -0.373377,0.0435 -0.575842,0.01424 -1.166546,-0.08599 -1.738646,-0.137614 -1.874375,-0.105468 -2.326945,0.418466 -4.228367,1.704856 -0.135067,0.09138 -0.387162,0.67719 -0.449268,0.809442 -0.113199,0.272675 -0.201348,0.546624 -0.396952,0.776952 -0.09603,0.11308 -0.222835,0.195908 -0.334251,0.293859 0.602761,-0.364836 1.241571,-0.675859 1.808279,-1.094509 0.182904,-0.135121 -0.42256,0.170584 -0.641379,0.232473 -0.254473,0.07197 -0.516887,0.112141 -0.775332,0.168212 -1.147249,0.256513 -2.376538,0.210433 -3.494323,0.606525 -0.226685,0.08033 -0.446019,0.185523 -0.650425,0.312235 -0.922938,0.572119 -1.818198,1.187722 -2.727296,1.781582 -0.688758,0.925333 -0.59899,2.092918 -0.903542,3.148444 -0.192627,0.492673 -0.612021,0.838076 -0.858202,1.300245 -0.215559,0.404677 -0.194699,0.461975 -0.297199,0.918942 -0.0013,0.194845 -0.02986,0.39142 -0.0039,0.584531 0.157654,1.17316 0.870659,2.240029 1.54084,3.179546 0.178083,0.28276 0.455319,0.517615 0.579192,0.835641 0.09529,0.244644 0.102618,0.577122 0.155191,0.830644 0.297307,1.080907 1.054843,1.911821 1.871303,2.640128 0.416038,0.370002 0.908558,0.630016 1.352031,0.962354 0.655018,0.546875 1.279991,1.129559 2.034016,1.538755 0.462971,0.177216 0.966925,0.100431 1.454272,0.119394 1.812536,-0.292389 -1.425424,0.269438 1.582631,-0.49261 0.09627,-0.02439 0.193279,0.04575 0.289918,0.06862 0,0 0.04971,-0.0336 0.04971,-0.0336 v 0 c -0.813613,-0.41024 0.49631,-0.355645 0.187216,-0.997432 -0.504039,-0.278659 -0.787077,-0.09335 -1.310852,-0.151059 -0.777644,-0.328953 -1.380828,-0.923861 -1.987729,-1.496089 -0.429147,-0.365971 -0.911927,-0.6218 -1.37849,-0.935048 -0.80495,-0.663159 -1.536698,-1.436251 -1.758559,-2.491734 -0.132368,-0.914805 -0.15454,-1.060953 -0.834548,-1.755574 -0.8142,-1.012865 -1.586413,-2.201289 -1.406742,-3.558995 0.04753,-0.152009 0.08165,-0.30888 0.142597,-0.456023 0.265205,-0.640284 0.857186,-1.093012 1.033203,-1.777098 0.222758,-1.029673 0.176919,-2.136378 0.906545,-2.984 -0.585584,0.28846 -1.158918,0.603248 -1.756752,0.865376 -0.222599,0.0976 0.404218,-0.275709 0.628037,-0.370478 1.089382,-0.461261 2.337982,-0.402788 3.480008,-0.619577 1.916907,-0.318873 4.162685,-1.105059 4.877771,-3.058061 0.601409,-1.057667 1.517873,-1.38111 -1.47317,0.361938 -0.130464,0.07603 0.277317,-0.123734 0.424082,-0.15924 0.392477,-0.09495 0.702961,-0.06748 1.105434,-0.06611 1.909345,0.171504 3.266033,0.769091 4.849551,-1.380364 0.07312,-0.116077 0.160125,-0.264765 0.25291,-0.365494 0.06278,-0.06815 0.28766,-0.229742 0.205171,-0.187544 -0.695074,0.355565 -1.367137,0.75442 -2.050706,1.131629 0.123915,-0.05316 0.240334,-0.129296 0.371747,-0.15949 0.163759,-0.03763 0.334918,-0.02756 0.502378,-0.04135 1.474353,0.114406 2.892456,0.55098 4.362172,0.701414 1.550236,-0.0043 0.518266,0.08335 3.272372,-1.468976 0.100367,-0.05657 0.178406,-0.1459 0.265059,-0.221828 0.08676,-0.07602 0.358344,-0.285272 0.255056,-0.233903 -0.680664,0.338516 -1.324591,0.746808 -1.997506,1.100479 -0.130913,0.0688 0.246584,-0.163354 0.369877,-0.245032 0.160488,-0.06351 0.31474,-0.145896 0.48147,-0.190531 1.338019,-0.358199 2.759964,0.09714 4.082343,0.289744 1.108848,0.211652 2.314962,0.60436 3.362505,-0.0026 0.273098,-0.149154 0.517163,-0.302754 0.824617,-0.380912 1.149194,-0.292138 2.319827,0.194019 3.378792,0.578719 2.409362,1.054197 4.749747,2.251605 7.145756,3.331935 0.346212,0.129178 0.610155,0.240554 0.961091,0.330243 0.550875,0.140785 1.067792,0.263387 1.51752,0.65361 1.664311,1.259645 3.136538,2.744597 4.427971,4.385194 0.315564,0.460788 0.778616,0.995894 0.879899,1.575393 0.03445,0.197072 -0.08946,0.354843 -0.131943,0.537395 -0.204869,1.192326 0.15629,2.407751 0.158737,3.603543 0.07375,1.366731 0.207298,3.243826 -0.163581,4.567796 -0.04059,0.144909 -0.119161,0.276383 -0.178739,0.414572 -0.790591,0.795394 -0.481817,0.445072 1.989828,-1.022802 0.06806,-0.04042 -0.159235,0.02697 -0.228114,0.06598 -1.506963,0.853334 -2.65036,0.7361 -2.722755,2.097135 0.134702,1.441016 0.454403,2.883633 0.182763,4.332804 -0.293565,1.269428 -0.633113,2.132679 -1.740384,2.886382 -0.782754,0.725125 -0.871902,1.523328 -1.080315,2.537076 -0.09181,0.428569 -0.180615,0.910304 -0.325723,1.326422 -0.05935,0.170194 -0.128005,0.338651 -0.217839,0.494914 -0.07341,0.127698 -0.403453,0.40993 -0.268462,0.350988 0.310525,-0.135588 3.139545,-1.73137 1.819476,-0.987628 -0.11706,0.03433 -0.233016,0.07267 -0.351174,0.103002 -0.116276,0.02984 -0.246507,0.0196 -0.351718,0.07741 -1.842929,1.012579 -2.757234,0.973342 -3.118459,2.602654 -0.138515,0.533315 -0.27233,1.079145 -0.515609,1.577263 -0.08127,0.166407 -0.458166,0.536694 -0.282356,0.478488 0.660617,-0.218704 3.10038,-1.655379 1.792547,-0.890016 -0.143301,0.01984 -0.28529,0.05559 -0.429903,0.05951 -0.789157,0.02138 -1.581393,-0.304125 -2.36774,-0.07648 -0.948741,0.529011 -1.879068,1.092489 -2.846224,1.587032 -0.738843,0.377801 1.437021,-0.830434 2.160715,-1.236504 0.114784,-0.0644 -0.215728,0.15266 -0.333568,0.211283 -0.496226,0.246862 -0.965121,0.232469 -1.488118,0.061 -1.581184,-0.593388 -3.020446,-1.485463 -4.604353,-2.06571 -1.266057,-0.312666 -2.598264,-0.276418 -3.816117,-0.796266 -0.77584,-0.336651 -0.991632,-0.402254 -1.736548,-0.845389 -1.147876,-0.682847 -2.142368,-1.574533 -3.226265,-2.347267 -1.173462,-0.7004 -1.96728,-0.981025 -3.338047,-0.749572 -0.429308,0.02048 -0.648171,0.05295 -1.082627,-0.02098 -0.926135,-0.157572 -1.767483,-0.628332 -2.584154,-1.06426 -0.804167,-0.481319 -0.447254,-0.256982 -1.196575,-0.745387 -0.500645,-0.326318 -0.972289,-0.675812 -1.601478,-0.614439 -1.617316,0.04364 -3.235048,0.07524 -4.85307,0.06536 -1.468281,-0.0048 -2.940711,0.0016 -4.404291,-0.130699 0,0 -2.33068,1.64439 -2.33068,1.64439 z" />
    <path
       style="fill:#000000;stroke-width:0.264583"
       id="path96"
       d="m 56.237629,33.073049 c 1.471485,0.05646 2.92976,0.272065 4.384802,0.485401 0.611505,-0.02318 1.056653,-0.0085 1.441434,-0.520226 0,0 -0.03269,0.02305 -0.03269,0.02305 v 0 c 0.405517,-0.199194 0.92786,-0.354203 0.14124,-0.597543 -1.44989,-0.17862 -2.895229,-0.397531 -4.35098,-0.525846 0,0 -1.583806,1.135158 -1.583806,1.135158 z" />
    <path
       style="fill:#000000;stroke-width:0.264583"
       id="path98"
       d="m 58.182004,33.428627 c -0.219311,1.3628 -0.162378,2.761554 -0.181906,4.139322 0.01188,0.728213 -0.06463,1.456513 -0.01466,2.184403 0.0092,0.133834 -0.07447,0.349818 0.05022,0.399301 0.240924,0.09561 0.513953,-0.134411 0.771004,-0.10109 0,0 0.03485,-0.01963 0.03485,-0.01963 v 0 c 0.201417,-0.338098 0.0281,-0.07019 0.706554,-0.645813 0.09,-0.12682 0.05411,-0.306628 0.06861,-0.461463 0.06836,-0.730115 0.0078,-1.463963 0.03776,-2.195293 0.02445,-1.36684 0.06833,-2.73241 0.169296,-4.095908 0,0 -1.641737,0.796181 -1.641737,0.796181 z" />
    <path
       style="fill:#000000;stroke-width:0.264583"
       id="path100"
       d="m 62.788828,34.525108 c -0.11562,1.452319 -0.05291,2.915666 0.02334,4.368811 0.09907,0.27442 0.179313,0.756224 0.525399,0.89286 0.13404,0.05292 0.287967,-0.01199 0.431953,-0.01799 0,0 0.03494,-0.01947 0.03494,-0.01947 v 0 c 0.09884,-0.120843 0.222345,-0.22516 0.296521,-0.362529 0.236005,-0.437068 0.258807,-0.848133 0.340881,-1.331905 -0.04627,-1.447877 -0.07118,-2.895351 -0.02611,-4.343757 0,0 -1.626905,0.813985 -1.626905,0.813985 z" />
    <path
       style="fill:#000000;stroke-width:0.264583"
       id="path102"
       d="m 65.568991,34.676791 c -0.008,1.250098 0.189163,2.495519 0.47345,3.70957 0.241099,0.593278 0.737013,0.783016 1.251403,1.073758 0,0 0.03491,-0.01953 0.03491,-0.01953 v 0 c 0.129461,-0.629174 0.359754,-1.236194 0.275161,-1.890879 -0.225848,-1.221764 -0.369035,-2.448071 -0.478602,-3.684701 0,0 -1.556326,0.811773 -1.556326,0.811773 z" />
    <path
       style="fill:#000000;stroke-width:0.264583"
       id="path104"
       d="m 62.580741,37.641934 c 0.452679,-0.01971 0.931987,0.03303 1.373527,-0.09968 0.390369,-0.117335 0.760536,-0.293603 1.140804,-0.440405 0,0 0.0323,-0.0236 0.0323,-0.0236 v 0 c 0.0094,-0.137287 0.111382,-0.302196 0.02825,-0.411861 -0.08729,-0.115159 -0.924658,-0.06558 -1.105397,-0.08752 0,0 -1.469486,1.063058 -1.469486,1.063058 z" />
    <path
       style="fill:#000000;stroke-width:0.264583"
       id="path106"
       d="m 68.802373,38.71459 c 0.691804,-1.416471 1.401017,-2.8222 2.1672,-4.200271 0.114871,-0.197237 0.564795,-0.988642 0.733883,-1.215962 0.08009,-0.107677 0.395493,-0.354933 0.276767,-0.292378 -1.829184,0.963732 -1.576041,0.433872 -1.271908,1.430367 0.310552,1.169469 0.498491,2.368566 0.813573,3.536902 0.07851,0.291132 0.135752,0.592191 0.263207,0.865463 0.110411,0.236725 0.294791,0.431295 0.442188,0.646943 0.819179,0.393264 0.547367,0.116695 0.928039,0.701482 0,0 0.03498,-0.01939 0.03498,-0.01939 v 0 c -0.109318,-0.76346 -0.114564,-0.318452 0.200353,-1.320001 -0.01032,-0.288298 0.0091,-0.579205 -0.03094,-0.864894 -0.04216,-0.300707 -0.14332,-0.590142 -0.214443,-0.885343 -0.285927,-1.186757 -0.533331,-2.380898 -0.744339,-3.5834 -0.09811,-0.369187 -0.189023,-0.831821 -0.33561,-0.780529 -1.857706,0.650012 -1.960608,1.070991 -2.695504,2.498466 -0.734272,1.401603 -1.474742,2.800093 -2.18695,4.213103 0,0 1.619503,-0.730544 1.619503,-0.730544 z" />
    <path
       style="fill:#000000;stroke-width:0.264583"
       id="path108"
       d="m 68.170567,38.333484 c 0.528122,-0.1005 1.056209,-0.146087 1.573104,-0.309613 0.373875,-0.118277 0.723379,-0.312031 1.104006,-0.406337 0.172918,-0.04284 0.356293,2.6e-4 0.534437,2.65e-4 0,0 0.03236,-0.02349 0.03236,-0.02349 v 0 c -0.178179,-1.75e-4 -0.381699,0.09107 -0.534533,-5.29e-4 -0.10465,-0.06271 0.02037,-0.274529 -0.06683,-0.35986 -0.213963,-0.209373 -0.919803,-0.01572 -1.190831,-0.0042 0,0 -1.451716,1.103606 -1.451716,1.103606 z" />
    <path
       style="fill:#000000;stroke-width:0.264583"
       id="path110"
       d="m 74.863525,39.414666 c 0.506981,-1.720717 1.168948,-3.380478 1.943113,-4.996846 0.127408,-0.227545 0.240131,-0.463958 0.382223,-0.682631 0.254521,-0.391699 1.691703,-1.842156 -0.998212,0.401643 -0.05544,0.04624 0.109513,0.100722 0.137654,0.167204 0.07673,0.181295 0.129101,0.372843 0.172228,0.564927 0.0628,0.279713 0.09663,0.56515 0.144947,0.847725 0.145574,1.001567 0.239702,2.009431 0.358561,3.014213 0.0181,0.152919 0.104425,0.974056 0.195021,1.204571 0.03041,0.07737 0.106069,0.128037 0.159102,0.192056 0.654868,-0.3933 1.367915,-0.702929 1.9646,-1.179899 0.176546,-0.141126 0.190847,-0.409805 0.282541,-0.616389 0.08559,-0.192823 0.668639,-1.518163 0.695412,-1.706764 0.03044,-0.214439 -0.0828,-0.425188 -0.124195,-0.637783 0.05331,-0.220086 0.106616,-0.440174 0.159927,-0.660262 0,0 -0.03645,0.01646 -0.03645,0.01646 v 0 c -0.204383,0.288927 -0.39473,0.588309 -0.613143,0.86678 -0.305446,0.389435 -0.677995,0.726432 -0.957062,1.135187 -0.196492,0.287803 -0.307998,0.625226 -0.459184,0.939205 -0.131942,0.274021 -0.250526,0.554585 -0.390184,0.824756 -0.105709,0.204494 -0.575476,0.602107 -0.345313,0.598072 0.539301,-0.0094 0.996929,-0.412155 1.495391,-0.618233 -0.04578,-0.02344 -0.113273,-0.02487 -0.137335,-0.07034 -0.123716,-0.233722 -0.223536,-0.97613 -0.248668,-1.148151 -0.146714,-1.004213 -0.241583,-2.015469 -0.353529,-3.023825 -0.04735,-0.343903 -0.126256,-1.178306 -0.29406,-1.54182 -0.06696,-0.145047 -0.150982,-0.423146 -0.302295,-0.371901 -1.571389,0.532164 -1.932368,1.00298 -2.501328,2.220841 -0.725477,1.617758 -1.418791,3.270263 -1.847781,4.993907 0,0 1.51802,-0.732716 1.51802,-0.732716 z" />
    <path
       style="fill:#000000;stroke-width:0.264583"
       id="path112"
       d="m 82.302024,34.736463 c 0.22108,1.336484 0.08439,2.70029 0.189931,4.042783 0.02199,0.279582 0.08408,0.554553 0.126127,0.831829 0.759809,0.382161 0.647115,0.08319 0.627358,0.724704 0,0 0.03571,-0.01802 0.03571,-0.01802 v 0 c 0.04041,-0.803127 -0.05547,-0.294447 0.685461,-1.393439 0.04331,-0.321178 0.107223,-0.640244 0.12994,-0.96353 0.0241,-0.343101 0.0099,-0.687846 0.01027,-1.031793 0.0011,-1.033907 0.0067,-2.072262 -0.08293,-3.102938 0,0 -1.721872,0.910399 -1.721872,0.910399 z" />
    <path
       style="fill:#000000;stroke-width:0.264583"
       id="path114"
       d="m 84.974945,36.4286 c -0.519438,0.514041 -1.188511,0.866529 -1.671161,1.414997 -0.01241,0.08453 -0.05304,0.169638 -0.03721,0.253598 0.120075,0.63704 1.411261,1.176552 1.915318,1.444987 0.927743,0.254649 0.391044,0.207508 1.614625,-0.07361 0,0 0.0335,-0.02185 0.0335,-0.02185 v 0 c 0.365252,-0.776603 0.472456,-0.478502 -0.05278,-0.948912 -0.317984,-0.167307 -1.733002,-0.82277 -1.736704,-1.248855 -5.29e-4,-0.05789 0.0461,-0.106212 0.06914,-0.159316 0.524399,-0.513271 1.153914,-0.909077 1.694492,-1.405668 0,0 -1.829226,0.744641 -1.829226,0.744641 z" />
    <path
       style="fill:#000000;stroke-width:0.264583"
       id="path116"
       d="m 92.365895,34.184283 c -1.346742,-0.585539 -2.740933,0.570806 -3.797104,1.171 -0.704514,0.822669 -0.02344,1.705737 0.500348,2.416803 0.518554,0.768434 1.396828,1.432599 1.619491,2.375595 0.03092,0.130959 0.01818,0.268505 0.02726,0.40276 -0.121531,0.377671 -0.07505,0.405609 -0.403087,0.679455 -0.123177,0.10283 -0.54121,0.344943 -0.404228,0.261379 0.393438,-0.240006 0.820568,-0.434626 1.173692,-0.730768 0.162332,-0.136139 -0.39683,0.149799 -0.588521,0.240019 -0.353507,0.166383 -0.69723,0.352811 -1.045847,0.529217 -0.180089,0.04318 -0.360178,0.08635 -0.540266,0.129532 0,0 -0.03206,0.02392 -0.03206,0.02392 v 0 c 0.116404,0.0052 0.232807,0.0104 0.349208,0.01558 -0.01929,0.109464 -0.148204,0.263594 -0.05789,0.328391 0.11397,0.08177 0.288632,-0.01064 0.41451,-0.07252 0.390916,-0.192196 2.387052,-0.981151 2.763173,-1.874731 0.05598,-0.132996 0.05602,-0.283102 0.08402,-0.424654 -0.02043,-0.14904 -0.02003,-0.30244 -0.06125,-0.447117 -0.270021,-0.948023 -1.123903,-1.617945 -1.657517,-2.406245 -0.458549,-0.641789 -1.108094,-1.487191 -0.327073,-2.144019 -2.642407,1.482378 -0.809913,0.22625 0.365549,0.583478 0,0 1.617588,-1.057082 1.617588,-1.057082 z" />
  </g>
</svg>
